<?xml version="1.0" encoding="UTF-8" standalone="no"?>
<!DOCTYPE svg PUBLIC "-//W3C//DTD SVG 1.1//EN"
 "http://www.w3.org/Graphics/SVG/1.1/DTD/svg11.dtd">
<!-- Generated by graphviz version 8.0.5 (20230430.1635)
 -->
<!-- Title: G Pages: 1 -->
<svg width="1563pt" height="718pt"
 viewBox="0.00 0.00 1562.95 717.95" xmlns="http://www.w3.org/2000/svg" xmlns:xlink="http://www.w3.org/1999/xlink">
<g id="graph0" class="graph" transform="scale(1 1) rotate(0) translate(21.6 696.35)">
<title>G</title>
<polygon fill="#111111" stroke="none" points="-21.6,21.6 -21.6,-696.35 1541.35,-696.35 1541.35,21.6 -21.6,21.6"/>
<!-- components/Button/Button.stories.tsx -->
<g id="node1" class="node">
<title>components/Button/Button.stories.tsx</title>
<path fill="none" stroke="#c6c5fe" d="M239.83,-23.75C239.83,-23.75 15.42,-23.75 15.42,-23.75 11.46,-23.75 7.5,-19.79 7.5,-15.83 7.5,-15.83 7.5,-7.92 7.5,-7.92 7.5,-3.96 11.46,0 15.42,0 15.42,0 239.83,0 239.83,0 243.79,0 247.75,-3.96 247.75,-7.92 247.75,-7.92 247.75,-15.83 247.75,-15.83 247.75,-19.79 243.79,-23.75 239.83,-23.75"/>
<text text-anchor="middle" x="127.62" y="-6.45" font-family="Arial" font-size="14.00" fill="#c6c5fe">components/Button/Button.stories.tsx</text>
</g>
<!-- components/Button/Button.tsx -->
<g id="node2" class="node">
<title>components/Button/Button.tsx</title>
<path fill="none" stroke="#cfffac" d="M552.46,-23.75C552.46,-23.75 371.54,-23.75 371.54,-23.75 367.58,-23.75 363.62,-19.79 363.62,-15.83 363.62,-15.83 363.62,-7.92 363.62,-7.92 363.62,-3.96 367.58,0 371.54,0 371.54,0 552.46,0 552.46,0 556.42,0 560.38,-3.96 560.38,-7.92 560.38,-7.92 560.38,-15.83 560.38,-15.83 560.38,-19.79 556.42,-23.75 552.46,-23.75"/>
<text text-anchor="middle" x="462" y="-6.45" font-family="Arial" font-size="14.00" fill="#cfffac">components/Button/Button.tsx</text>
</g>
<!-- components/Button/Button.stories.tsx&#45;&gt;components/Button/Button.tsx -->
<g id="edge1" class="edge">
<title>components/Button/Button.stories.tsx&#45;&gt;components/Button/Button.tsx</title>
<path fill="none" stroke="#757575" d="M248.15,-11.88C282.24,-11.88 319.18,-11.88 352.57,-11.88"/>
<polygon fill="#757575" stroke="#757575" points="352.28,-15.38 362.28,-11.88 352.28,-8.38 352.28,-15.38"/>
</g>
<!-- components/Tooltip/Tooltip.tsx -->
<g id="node3" class="node">
<title>components/Tooltip/Tooltip.tsx</title>
<path fill="none" stroke="#cfffac" d="M218.08,-65.75C218.08,-65.75 37.17,-65.75 37.17,-65.75 33.21,-65.75 29.25,-61.79 29.25,-57.83 29.25,-57.83 29.25,-49.92 29.25,-49.92 29.25,-45.96 33.21,-42 37.17,-42 37.17,-42 218.08,-42 218.08,-42 222.04,-42 226,-45.96 226,-49.92 226,-49.92 226,-57.83 226,-57.83 226,-61.79 222.04,-65.75 218.08,-65.75"/>
<text text-anchor="middle" x="127.62" y="-48.45" font-family="Arial" font-size="14.00" fill="#cfffac">components/Tooltip/Tooltip.tsx</text>
</g>
<!-- lp&#45;items.tsx -->
<g id="node4" class="node">
<title>lp&#45;items.tsx</title>
<path fill="none" stroke="#cfffac" d="M162.21,-107.75C162.21,-107.75 93.04,-107.75 93.04,-107.75 89.08,-107.75 85.12,-103.79 85.12,-99.83 85.12,-99.83 85.12,-91.92 85.12,-91.92 85.12,-87.96 89.08,-84 93.04,-84 93.04,-84 162.21,-84 162.21,-84 166.17,-84 170.12,-87.96 170.12,-91.92 170.12,-91.92 170.12,-99.83 170.12,-99.83 170.12,-103.79 166.17,-107.75 162.21,-107.75"/>
<text text-anchor="middle" x="127.62" y="-90.45" font-family="Arial" font-size="14.00" fill="#cfffac">lp&#45;items.tsx</text>
</g>
<!-- public/assets/css/animate.css -->
<g id="node5" class="node">
<title>public/assets/css/animate.css</title>
<path fill="none" stroke="#cfffac" d="M216.96,-149.75C216.96,-149.75 38.29,-149.75 38.29,-149.75 34.33,-149.75 30.38,-145.79 30.38,-141.83 30.38,-141.83 30.38,-133.92 30.38,-133.92 30.38,-129.96 34.33,-126 38.29,-126 38.29,-126 216.96,-126 216.96,-126 220.92,-126 224.88,-129.96 224.88,-133.92 224.88,-133.92 224.88,-141.83 224.88,-141.83 224.88,-145.79 220.92,-149.75 216.96,-149.75"/>
<text text-anchor="middle" x="127.62" y="-132.45" font-family="Arial" font-size="14.00" fill="#cfffac">public/assets/css/animate.css</text>
</g>
<!-- public/assets/css/backtotop.css -->
<g id="node6" class="node">
<title>public/assets/css/backtotop.css</title>
<path fill="none" stroke="#cfffac" d="M221.83,-191.75C221.83,-191.75 33.42,-191.75 33.42,-191.75 29.46,-191.75 25.5,-187.79 25.5,-183.83 25.5,-183.83 25.5,-175.92 25.5,-175.92 25.5,-171.96 29.46,-168 33.42,-168 33.42,-168 221.83,-168 221.83,-168 225.79,-168 229.75,-171.96 229.75,-175.92 229.75,-175.92 229.75,-183.83 229.75,-183.83 229.75,-187.79 225.79,-191.75 221.83,-191.75"/>
<text text-anchor="middle" x="127.62" y="-174.45" font-family="Arial" font-size="14.00" fill="#cfffac">public/assets/css/backtotop.css</text>
</g>
<!-- public/assets/css/elegant&#45;icon.css -->
<g id="node7" class="node">
<title>public/assets/css/elegant&#45;icon.css</title>
<path fill="none" stroke="#cfffac" d="M229.33,-233.75C229.33,-233.75 25.92,-233.75 25.92,-233.75 21.96,-233.75 18,-229.79 18,-225.83 18,-225.83 18,-217.92 18,-217.92 18,-213.96 21.96,-210 25.92,-210 25.92,-210 229.33,-210 229.33,-210 233.29,-210 237.25,-213.96 237.25,-217.92 237.25,-217.92 237.25,-225.83 237.25,-225.83 237.25,-229.79 233.29,-233.75 229.33,-233.75"/>
<text text-anchor="middle" x="127.62" y="-216.45" font-family="Arial" font-size="14.00" fill="#cfffac">public/assets/css/elegant&#45;icon.css</text>
</g>
<!-- public/assets/css/font&#45;awesome&#45;pro.css -->
<g id="node8" class="node">
<title>public/assets/css/font&#45;awesome&#45;pro.css</title>
<path fill="none" stroke="#cfffac" d="M247.33,-275.75C247.33,-275.75 7.92,-275.75 7.92,-275.75 3.96,-275.75 0,-271.79 0,-267.83 0,-267.83 0,-259.92 0,-259.92 0,-255.96 3.96,-252 7.92,-252 7.92,-252 247.33,-252 247.33,-252 251.29,-252 255.25,-255.96 255.25,-259.92 255.25,-259.92 255.25,-267.83 255.25,-267.83 255.25,-271.79 251.29,-275.75 247.33,-275.75"/>
<text text-anchor="middle" x="127.62" y="-258.45" font-family="Arial" font-size="14.00" fill="#cfffac">public/assets/css/font&#45;awesome&#45;pro.css</text>
</g>
<!-- public/assets/css/nice&#45;select.css -->
<g id="node9" class="node">
<title>public/assets/css/nice&#45;select.css</title>
<path fill="none" stroke="#cfffac" d="M224.83,-317.75C224.83,-317.75 30.42,-317.75 30.42,-317.75 26.46,-317.75 22.5,-313.79 22.5,-309.83 22.5,-309.83 22.5,-301.92 22.5,-301.92 22.5,-297.96 26.46,-294 30.42,-294 30.42,-294 224.83,-294 224.83,-294 228.79,-294 232.75,-297.96 232.75,-301.92 232.75,-301.92 232.75,-309.83 232.75,-309.83 232.75,-313.79 228.79,-317.75 224.83,-317.75"/>
<text text-anchor="middle" x="127.62" y="-300.45" font-family="Arial" font-size="14.00" fill="#cfffac">public/assets/css/nice&#45;select.css</text>
</g>
<!-- public/assets/css/spacing.css -->
<g id="node10" class="node">
<title>public/assets/css/spacing.css</title>
<path fill="none" stroke="#cfffac" d="M215.83,-359.75C215.83,-359.75 39.42,-359.75 39.42,-359.75 35.46,-359.75 31.5,-355.79 31.5,-351.83 31.5,-351.83 31.5,-343.92 31.5,-343.92 31.5,-339.96 35.46,-336 39.42,-336 39.42,-336 215.83,-336 215.83,-336 219.79,-336 223.75,-339.96 223.75,-343.92 223.75,-343.92 223.75,-351.83 223.75,-351.83 223.75,-355.79 219.79,-359.75 215.83,-359.75"/>
<text text-anchor="middle" x="127.62" y="-342.45" font-family="Arial" font-size="14.00" fill="#cfffac">public/assets/css/spacing.css</text>
</g>
<!-- src/app/LoginComponent/ComponentFrame.tsx -->
<g id="node11" class="node">
<title>src/app/LoginComponent/ComponentFrame.tsx</title>
<path fill="none" stroke="#c6c5fe" d="M605.33,-443.75C605.33,-443.75 318.67,-443.75 318.67,-443.75 314.71,-443.75 310.75,-439.79 310.75,-435.83 310.75,-435.83 310.75,-427.92 310.75,-427.92 310.75,-423.96 314.71,-420 318.67,-420 318.67,-420 605.33,-420 605.33,-420 609.29,-420 613.25,-423.96 613.25,-427.92 613.25,-427.92 613.25,-435.83 613.25,-435.83 613.25,-439.79 609.29,-443.75 605.33,-443.75"/>
<text text-anchor="middle" x="462" y="-426.45" font-family="Arial" font-size="14.00" fill="#c6c5fe">src/app/LoginComponent/ComponentFrame.tsx</text>
</g>
<!-- src/app/LoginComponent/LoginContainer/LoginFrame.tsx -->
<g id="node12" class="node">
<title>src/app/LoginComponent/LoginContainer/LoginFrame.tsx</title>
<path fill="none" stroke="#c6c5fe" d="M1039.08,-464.75C1039.08,-464.75 694.67,-464.75 694.67,-464.75 690.71,-464.75 686.75,-460.79 686.75,-456.83 686.75,-456.83 686.75,-448.92 686.75,-448.92 686.75,-444.96 690.71,-441 694.67,-441 694.67,-441 1039.08,-441 1039.08,-441 1043.04,-441 1047,-444.96 1047,-448.92 1047,-448.92 1047,-456.83 1047,-456.83 1047,-460.79 1043.04,-464.75 1039.08,-464.75"/>
<text text-anchor="middle" x="866.88" y="-447.45" font-family="Arial" font-size="14.00" fill="#c6c5fe">src/app/LoginComponent/LoginContainer/LoginFrame.tsx</text>
</g>
<!-- src/app/LoginComponent/ComponentFrame.tsx&#45;&gt;src/app/LoginComponent/LoginContainer/LoginFrame.tsx -->
<g id="edge2" class="edge">
<title>src/app/LoginComponent/ComponentFrame.tsx&#45;&gt;src/app/LoginComponent/LoginContainer/LoginFrame.tsx</title>
<path fill="none" stroke="#757575" d="M613.59,-439.72C633.86,-440.78 654.86,-441.88 675.71,-442.96"/>
<polygon fill="#757575" stroke="#757575" points="675.42,-446.5 685.59,-443.53 675.78,-439.51 675.42,-446.5"/>
</g>
<!-- src/app/LoginComponent/SignupContainer/SignupContainer.tsx -->
<g id="node13" class="node">
<title>src/app/LoginComponent/SignupContainer/SignupContainer.tsx</title>
<path fill="none" stroke="#cfffac" d="M1057.08,-422.75C1057.08,-422.75 676.67,-422.75 676.67,-422.75 672.71,-422.75 668.75,-418.79 668.75,-414.83 668.75,-414.83 668.75,-406.92 668.75,-406.92 668.75,-402.96 672.71,-399 676.67,-399 676.67,-399 1057.08,-399 1057.08,-399 1061.04,-399 1065,-402.96 1065,-406.92 1065,-406.92 1065,-414.83 1065,-414.83 1065,-418.79 1061.04,-422.75 1057.08,-422.75"/>
<text text-anchor="middle" x="866.88" y="-405.45" font-family="Arial" font-size="14.00" fill="#cfffac">src/app/LoginComponent/SignupContainer/SignupContainer.tsx</text>
</g>
<!-- src/app/LoginComponent/ComponentFrame.tsx&#45;&gt;src/app/LoginComponent/SignupContainer/SignupContainer.tsx -->
<g id="edge3" class="edge">
<title>src/app/LoginComponent/ComponentFrame.tsx&#45;&gt;src/app/LoginComponent/SignupContainer/SignupContainer.tsx</title>
<path fill="none" stroke="#757575" d="M613.59,-424.03C627.98,-423.28 642.73,-422.51 657.54,-421.73"/>
<polygon fill="#757575" stroke="#757575" points="657.52,-425.19 667.33,-421.17 657.16,-418.2 657.52,-425.19"/>
</g>
<!-- src/app/LoginComponent/LoginContainer/Content/Login/Login.tsx -->
<g id="node14" class="node">
<title>src/app/LoginComponent/LoginContainer/Content/Login/Login.tsx</title>
<path fill="none" stroke="#cfffac" d="M1506.58,-485.75C1506.58,-485.75 1114.17,-485.75 1114.17,-485.75 1110.21,-485.75 1106.25,-481.79 1106.25,-477.83 1106.25,-477.83 1106.25,-469.92 1106.25,-469.92 1106.25,-465.96 1110.21,-462 1114.17,-462 1114.17,-462 1506.58,-462 1506.58,-462 1510.54,-462 1514.5,-465.96 1514.5,-469.92 1514.5,-469.92 1514.5,-477.83 1514.5,-477.83 1514.5,-481.79 1510.54,-485.75 1506.58,-485.75"/>
<text text-anchor="middle" x="1310.38" y="-468.45" font-family="Arial" font-size="14.00" fill="#cfffac">src/app/LoginComponent/LoginContainer/Content/Login/Login.tsx</text>
</g>
<!-- src/app/LoginComponent/LoginContainer/LoginFrame.tsx&#45;&gt;src/app/LoginComponent/LoginContainer/Content/Login/Login.tsx -->
<g id="edge4" class="edge">
<title>src/app/LoginComponent/LoginContainer/LoginFrame.tsx&#45;&gt;src/app/LoginComponent/LoginContainer/Content/Login/Login.tsx</title>
<path fill="none" stroke="#757575" d="M1047.45,-461.42C1063.06,-462.16 1078.96,-462.92 1094.82,-463.67"/>
<polygon fill="#757575" stroke="#757575" points="1094.63,-467.21 1104.79,-464.19 1094.97,-460.22 1094.63,-467.21"/>
</g>
<!-- src/app/LoginComponent/LoginContainer/Content/NameHeader.tsx -->
<g id="node15" class="node">
<title>src/app/LoginComponent/LoginContainer/Content/NameHeader.tsx</title>
<path fill="none" stroke="#cfffac" d="M1511.83,-443.75C1511.83,-443.75 1108.92,-443.75 1108.92,-443.75 1104.96,-443.75 1101,-439.79 1101,-435.83 1101,-435.83 1101,-427.92 1101,-427.92 1101,-423.96 1104.96,-420 1108.92,-420 1108.92,-420 1511.83,-420 1511.83,-420 1515.79,-420 1519.75,-423.96 1519.75,-427.92 1519.75,-427.92 1519.75,-435.83 1519.75,-435.83 1519.75,-439.79 1515.79,-443.75 1511.83,-443.75"/>
<text text-anchor="middle" x="1310.38" y="-426.45" font-family="Arial" font-size="14.00" fill="#cfffac">src/app/LoginComponent/LoginContainer/Content/NameHeader.tsx</text>
</g>
<!-- src/app/LoginComponent/LoginContainer/LoginFrame.tsx&#45;&gt;src/app/LoginComponent/LoginContainer/Content/NameHeader.tsx -->
<g id="edge5" class="edge">
<title>src/app/LoginComponent/LoginContainer/LoginFrame.tsx&#45;&gt;src/app/LoginComponent/LoginContainer/Content/NameHeader.tsx</title>
<path fill="none" stroke="#757575" d="M1047.45,-444.33C1061.43,-443.67 1075.64,-442.99 1089.85,-442.32"/>
<polygon fill="#757575" stroke="#757575" points="1089.88,-445.77 1099.71,-441.8 1089.55,-438.78 1089.88,-445.77"/>
</g>
<!-- src/app/globals.css -->
<g id="node16" class="node">
<title>src/app/globals.css</title>
<path fill="none" stroke="#cfffac" d="M519.46,-401.75C519.46,-401.75 404.54,-401.75 404.54,-401.75 400.58,-401.75 396.62,-397.79 396.62,-393.83 396.62,-393.83 396.62,-385.92 396.62,-385.92 396.62,-381.96 400.58,-378 404.54,-378 404.54,-378 519.46,-378 519.46,-378 523.42,-378 527.38,-381.96 527.38,-385.92 527.38,-385.92 527.38,-393.83 527.38,-393.83 527.38,-397.79 523.42,-401.75 519.46,-401.75"/>
<text text-anchor="middle" x="462" y="-384.45" font-family="Arial" font-size="14.00" fill="#cfffac">src/app/globals.css</text>
</g>
<!-- src/app/home/layout.module.css -->
<g id="node17" class="node">
<title>src/app/home/layout.module.css</title>
<path fill="none" stroke="#cfffac" d="M225.21,-485.75C225.21,-485.75 30.04,-485.75 30.04,-485.75 26.08,-485.75 22.12,-481.79 22.12,-477.83 22.12,-477.83 22.12,-469.92 22.12,-469.92 22.12,-465.96 26.08,-462 30.04,-462 30.04,-462 225.21,-462 225.21,-462 229.17,-462 233.12,-465.96 233.12,-469.92 233.12,-469.92 233.12,-477.83 233.12,-477.83 233.12,-481.79 229.17,-485.75 225.21,-485.75"/>
<text text-anchor="middle" x="127.62" y="-468.45" font-family="Arial" font-size="14.00" fill="#cfffac">src/app/home/layout.module.css</text>
</g>
<!-- src/app/home/layout.tsx -->
<g id="node18" class="node">
<title>src/app/home/layout.tsx</title>
<path fill="none" stroke="#c6c5fe" d="M199.33,-527.75C199.33,-527.75 55.92,-527.75 55.92,-527.75 51.96,-527.75 48,-523.79 48,-519.83 48,-519.83 48,-511.92 48,-511.92 48,-507.96 51.96,-504 55.92,-504 55.92,-504 199.33,-504 199.33,-504 203.29,-504 207.25,-507.96 207.25,-511.92 207.25,-511.92 207.25,-519.83 207.25,-519.83 207.25,-523.79 203.29,-527.75 199.33,-527.75"/>
<text text-anchor="middle" x="127.62" y="-510.45" font-family="Arial" font-size="14.00" fill="#c6c5fe">src/app/home/layout.tsx</text>
</g>
<!-- src/layout/BottomNav/BottomNav.tsx -->
<g id="node19" class="node">
<title>src/layout/BottomNav/BottomNav.tsx</title>
<path fill="none" stroke="#cfffac" d="M572.33,-569.75C572.33,-569.75 351.67,-569.75 351.67,-569.75 347.71,-569.75 343.75,-565.79 343.75,-561.83 343.75,-561.83 343.75,-553.92 343.75,-553.92 343.75,-549.96 347.71,-546 351.67,-546 351.67,-546 572.33,-546 572.33,-546 576.29,-546 580.25,-549.96 580.25,-553.92 580.25,-553.92 580.25,-561.83 580.25,-561.83 580.25,-565.79 576.29,-569.75 572.33,-569.75"/>
<text text-anchor="middle" x="462" y="-552.45" font-family="Arial" font-size="14.00" fill="#cfffac">src/layout/BottomNav/BottomNav.tsx</text>
</g>
<!-- src/app/home/layout.tsx&#45;&gt;src/layout/BottomNav/BottomNav.tsx -->
<g id="edge6" class="edge">
<title>src/app/home/layout.tsx&#45;&gt;src/layout/BottomNav/BottomNav.tsx</title>
<path fill="none" stroke="#757575" d="M207.61,-526.16C234.18,-529.6 264,-533.43 291.25,-536.88 310.14,-539.26 330.22,-541.77 349.7,-544.19"/>
<polygon fill="#757575" stroke="#757575" points="349.1,-547.77 359.46,-545.53 349.96,-540.82 349.1,-547.77"/>
</g>
<!-- src/layout/FooterSection/FooterSection.tsx -->
<g id="node20" class="node">
<title>src/layout/FooterSection/FooterSection.tsx</title>
<path fill="none" stroke="#cfffac" d="M589.21,-527.75C589.21,-527.75 334.79,-527.75 334.79,-527.75 330.83,-527.75 326.88,-523.79 326.88,-519.83 326.88,-519.83 326.88,-511.92 326.88,-511.92 326.88,-507.96 330.83,-504 334.79,-504 334.79,-504 589.21,-504 589.21,-504 593.17,-504 597.12,-507.96 597.12,-511.92 597.12,-511.92 597.12,-519.83 597.12,-519.83 597.12,-523.79 593.17,-527.75 589.21,-527.75"/>
<text text-anchor="middle" x="462" y="-510.45" font-family="Arial" font-size="14.00" fill="#cfffac">src/layout/FooterSection/FooterSection.tsx</text>
</g>
<!-- src/app/home/layout.tsx&#45;&gt;src/layout/FooterSection/FooterSection.tsx -->
<g id="edge7" class="edge">
<title>src/app/home/layout.tsx&#45;&gt;src/layout/FooterSection/FooterSection.tsx</title>
<path fill="none" stroke="#757575" d="M207.39,-515.88C239.8,-515.88 278.42,-515.88 315.62,-515.88"/>
<polygon fill="#757575" stroke="#757575" points="315.58,-519.38 325.58,-515.88 315.58,-512.38 315.58,-519.38"/>
</g>
<!-- src/layout/HeaderBar/HeaderBar.tsx -->
<g id="node21" class="node">
<title>src/layout/HeaderBar/HeaderBar.tsx</title>
<path fill="none" stroke="#cfffac" d="M570.08,-485.75C570.08,-485.75 353.92,-485.75 353.92,-485.75 349.96,-485.75 346,-481.79 346,-477.83 346,-477.83 346,-469.92 346,-469.92 346,-465.96 349.96,-462 353.92,-462 353.92,-462 570.08,-462 570.08,-462 574.04,-462 578,-465.96 578,-469.92 578,-469.92 578,-477.83 578,-477.83 578,-481.79 574.04,-485.75 570.08,-485.75"/>
<text text-anchor="middle" x="462" y="-468.45" font-family="Arial" font-size="14.00" fill="#cfffac">src/layout/HeaderBar/HeaderBar.tsx</text>
</g>
<!-- src/app/home/layout.tsx&#45;&gt;src/layout/HeaderBar/HeaderBar.tsx -->
<g id="edge8" class="edge">
<title>src/app/home/layout.tsx&#45;&gt;src/layout/HeaderBar/HeaderBar.tsx</title>
<path fill="none" stroke="#757575" d="M207.61,-505.59C234.18,-502.15 264,-498.32 291.25,-494.88 310.14,-492.49 330.22,-489.98 349.7,-487.56"/>
<polygon fill="#757575" stroke="#757575" points="349.96,-490.93 359.46,-486.22 349.1,-483.98 349.96,-490.93"/>
</g>
<!-- src/app/home/page.tsx -->
<g id="node22" class="node">
<title>src/app/home/page.tsx</title>
<path fill="none" stroke="#c6c5fe" d="M196.33,-632.75C196.33,-632.75 58.92,-632.75 58.92,-632.75 54.96,-632.75 51,-628.79 51,-624.83 51,-624.83 51,-616.92 51,-616.92 51,-612.96 54.96,-609 58.92,-609 58.92,-609 196.33,-609 196.33,-609 200.29,-609 204.25,-612.96 204.25,-616.92 204.25,-616.92 204.25,-624.83 204.25,-624.83 204.25,-628.79 200.29,-632.75 196.33,-632.75"/>
<text text-anchor="middle" x="127.62" y="-615.45" font-family="Arial" font-size="14.00" fill="#c6c5fe">src/app/home/page.tsx</text>
</g>
<!-- src/components/CategoryBlocks/CategoryBlocks.tsx -->
<g id="node23" class="node">
<title>src/components/CategoryBlocks/CategoryBlocks.tsx</title>
<path fill="none" stroke="#c6c5fe" d="M618.83,-653.75C618.83,-653.75 305.17,-653.75 305.17,-653.75 301.21,-653.75 297.25,-649.79 297.25,-645.83 297.25,-645.83 297.25,-637.92 297.25,-637.92 297.25,-633.96 301.21,-630 305.17,-630 305.17,-630 618.83,-630 618.83,-630 622.79,-630 626.75,-633.96 626.75,-637.92 626.75,-637.92 626.75,-645.83 626.75,-645.83 626.75,-649.79 622.79,-653.75 618.83,-653.75"/>
<text text-anchor="middle" x="462" y="-636.45" font-family="Arial" font-size="14.00" fill="#c6c5fe">src/components/CategoryBlocks/CategoryBlocks.tsx</text>
</g>
<!-- src/app/home/page.tsx&#45;&gt;src/components/CategoryBlocks/CategoryBlocks.tsx -->
<g id="edge9" class="edge">
<title>src/app/home/page.tsx&#45;&gt;src/components/CategoryBlocks/CategoryBlocks.tsx</title>
<path fill="none" stroke="#757575" d="M204.46,-625.67C229.12,-627.22 257.59,-629.02 286.4,-630.84"/>
<polygon fill="#757575" stroke="#757575" points="285.82,-634.38 296.02,-631.51 286.26,-627.39 285.82,-634.38"/>
</g>
<!-- src/components/ProductCarousel/ProductCarousel.tsx -->
<g id="node24" class="node">
<title>src/components/ProductCarousel/ProductCarousel.tsx</title>
<path fill="none" stroke="#c6c5fe" d="M624.83,-611.75C624.83,-611.75 299.17,-611.75 299.17,-611.75 295.21,-611.75 291.25,-607.79 291.25,-603.83 291.25,-603.83 291.25,-595.92 291.25,-595.92 291.25,-591.96 295.21,-588 299.17,-588 299.17,-588 624.83,-588 624.83,-588 628.79,-588 632.75,-591.96 632.75,-595.92 632.75,-595.92 632.75,-603.83 632.75,-603.83 632.75,-607.79 628.79,-611.75 624.83,-611.75"/>
<text text-anchor="middle" x="462" y="-594.45" font-family="Arial" font-size="14.00" fill="#c6c5fe">src/components/ProductCarousel/ProductCarousel.tsx</text>
</g>
<!-- src/app/home/page.tsx&#45;&gt;src/components/ProductCarousel/ProductCarousel.tsx -->
<g id="edge10" class="edge">
<title>src/app/home/page.tsx&#45;&gt;src/components/ProductCarousel/ProductCarousel.tsx</title>
<path fill="none" stroke="#757575" d="M204.46,-616.08C227.38,-614.64 253.59,-612.98 280.31,-611.29"/>
<polygon fill="#757575" stroke="#757575" points="280.21,-614.74 289.97,-610.62 279.77,-607.76 280.21,-614.74"/>
</g>
<!-- src/components/CategoryBlocks/CategoryBlock.tsx -->
<g id="node27" class="node">
<title>src/components/CategoryBlocks/CategoryBlock.tsx</title>
<path fill="none" stroke="#cfffac" d="M1020.33,-653.75C1020.33,-653.75 713.42,-653.75 713.42,-653.75 709.46,-653.75 705.5,-649.79 705.5,-645.83 705.5,-645.83 705.5,-637.92 705.5,-637.92 705.5,-633.96 709.46,-630 713.42,-630 713.42,-630 1020.33,-630 1020.33,-630 1024.29,-630 1028.25,-633.96 1028.25,-637.92 1028.25,-637.92 1028.25,-645.83 1028.25,-645.83 1028.25,-649.79 1024.29,-653.75 1020.33,-653.75"/>
<text text-anchor="middle" x="866.88" y="-636.45" font-family="Arial" font-size="14.00" fill="#cfffac">src/components/CategoryBlocks/CategoryBlock.tsx</text>
</g>
<!-- src/components/CategoryBlocks/CategoryBlocks.tsx&#45;&gt;src/components/CategoryBlocks/CategoryBlock.tsx -->
<g id="edge14" class="edge">
<title>src/components/CategoryBlocks/CategoryBlocks.tsx&#45;&gt;src/components/CategoryBlocks/CategoryBlock.tsx</title>
<path fill="none" stroke="#757575" d="M627.16,-641.88C649.33,-641.88 672.12,-641.88 694.42,-641.88"/>
<polygon fill="#757575" stroke="#757575" points="694.31,-645.38 704.31,-641.88 694.31,-638.38 694.31,-645.38"/>
</g>
<!-- src/components/ProductCarousel/ProductContainer.tsx -->
<g id="node28" class="node">
<title>src/components/ProductCarousel/ProductContainer.tsx</title>
<path fill="none" stroke="#cfffac" d="M1031.58,-611.75C1031.58,-611.75 702.17,-611.75 702.17,-611.75 698.21,-611.75 694.25,-607.79 694.25,-603.83 694.25,-603.83 694.25,-595.92 694.25,-595.92 694.25,-591.96 698.21,-588 702.17,-588 702.17,-588 1031.58,-588 1031.58,-588 1035.54,-588 1039.5,-591.96 1039.5,-595.92 1039.5,-595.92 1039.5,-603.83 1039.5,-603.83 1039.5,-607.79 1035.54,-611.75 1031.58,-611.75"/>
<text text-anchor="middle" x="866.88" y="-594.45" font-family="Arial" font-size="14.00" fill="#cfffac">src/components/ProductCarousel/ProductContainer.tsx</text>
</g>
<!-- src/components/ProductCarousel/ProductCarousel.tsx&#45;&gt;src/components/ProductCarousel/ProductContainer.tsx -->
<g id="edge15" class="edge">
<title>src/components/ProductCarousel/ProductCarousel.tsx&#45;&gt;src/components/ProductCarousel/ProductContainer.tsx</title>
<path fill="none" stroke="#757575" d="M632.98,-599.88C649.55,-599.88 666.41,-599.88 683.1,-599.88"/>
<polygon fill="#757575" stroke="#757575" points="683.04,-603.38 693.04,-599.88 683.04,-596.38 683.04,-603.38"/>
</g>
<!-- src/app/layout.tsx -->
<g id="node25" class="node">
<title>src/app/layout.tsx</title>
<path fill="none" stroke="#c6c5fe" d="M180.21,-401.75C180.21,-401.75 75.04,-401.75 75.04,-401.75 71.08,-401.75 67.12,-397.79 67.12,-393.83 67.12,-393.83 67.12,-385.92 67.12,-385.92 67.12,-381.96 71.08,-378 75.04,-378 75.04,-378 180.21,-378 180.21,-378 184.17,-378 188.12,-381.96 188.12,-385.92 188.12,-385.92 188.12,-393.83 188.12,-393.83 188.12,-397.79 184.17,-401.75 180.21,-401.75"/>
<text text-anchor="middle" x="127.62" y="-384.45" font-family="Arial" font-size="14.00" fill="#c6c5fe">src/app/layout.tsx</text>
</g>
<!-- src/app/layout.tsx&#45;&gt;src/app/globals.css -->
<g id="edge11" class="edge">
<title>src/app/layout.tsx&#45;&gt;src/app/globals.css</title>
<path fill="none" stroke="#757575" d="M188.43,-389.88C243.59,-389.88 325.73,-389.88 385.41,-389.88"/>
<polygon fill="#757575" stroke="#757575" points="385.28,-393.38 395.28,-389.88 385.28,-386.38 385.28,-393.38"/>
</g>
<!-- src/app/page.tsx -->
<g id="node26" class="node">
<title>src/app/page.tsx</title>
<path fill="none" stroke="#c6c5fe" d="M177.21,-443.75C177.21,-443.75 78.04,-443.75 78.04,-443.75 74.08,-443.75 70.12,-439.79 70.12,-435.83 70.12,-435.83 70.12,-427.92 70.12,-427.92 70.12,-423.96 74.08,-420 78.04,-420 78.04,-420 177.21,-420 177.21,-420 181.17,-420 185.12,-423.96 185.12,-427.92 185.12,-427.92 185.12,-435.83 185.12,-435.83 185.12,-439.79 181.17,-443.75 177.21,-443.75"/>
<text text-anchor="middle" x="127.62" y="-426.45" font-family="Arial" font-size="14.00" fill="#c6c5fe">src/app/page.tsx</text>
</g>
<!-- src/app/page.tsx&#45;&gt;src/app/LoginComponent/ComponentFrame.tsx -->
<g id="edge12" class="edge">
<title>src/app/page.tsx&#45;&gt;src/app/LoginComponent/ComponentFrame.tsx</title>
<path fill="none" stroke="#757575" d="M185.38,-431.88C217.13,-431.88 258.46,-431.88 299.42,-431.88"/>
<polygon fill="#757575" stroke="#757575" points="299.38,-435.38 309.38,-431.88 299.38,-428.38 299.38,-435.38"/>
</g>
<!-- src/app/page.tsx&#45;&gt;src/app/globals.css -->
<g id="edge13" class="edge">
<title>src/app/page.tsx&#45;&gt;src/app/globals.css</title>
<path fill="none" stroke="#757575" d="M185.44,-424.46C216.66,-420.41 256.09,-415.32 291.25,-410.88 322.21,-406.96 356.36,-402.72 385.86,-399.08"/>
<polygon fill="#757575" stroke="#757575" points="386.01,-402.47 395.5,-397.77 385.15,-395.52 386.01,-402.47"/>
</g>
<!-- styles/tailwind.css -->
<g id="node29" class="node">
<title>styles/tailwind.css</title>
<path fill="none" stroke="#cfffac" d="M181.33,-674.75C181.33,-674.75 73.92,-674.75 73.92,-674.75 69.96,-674.75 66,-670.79 66,-666.83 66,-666.83 66,-658.92 66,-658.92 66,-654.96 69.96,-651 73.92,-651 73.92,-651 181.33,-651 181.33,-651 185.29,-651 189.25,-654.96 189.25,-658.92 189.25,-658.92 189.25,-666.83 189.25,-666.83 189.25,-670.79 185.29,-674.75 181.33,-674.75"/>
<text text-anchor="middle" x="127.62" y="-657.45" font-family="Arial" font-size="14.00" fill="#cfffac">styles/tailwind.css</text>
</g>
</g>
</svg>
