<svg width="169" height="100" viewBox="0 0 169 100" fill="none" xmlns="http://www.w3.org/2000/svg">
<path fill-rule="evenodd" clip-rule="evenodd" d="M42.2499 0.0973614C41.6205 0.25458 29.1293 3.93868 26.6442 4.7002C24.1669 5.45923 24.1493 5.46819 23.2573 6.40669C22.7642 6.92549 22.1666 7.76405 21.9292 8.27008L21.4977 9.18998V43.3896C21.4977 75.9393 21.5121 77.6307 21.7975 78.4488C22.232 79.694 22.9475 80.5905 23.8868 81.0664C26.0188 82.1467 34.0669 84.1661 41.0974 85.385C47.4568 86.4874 48.011 86.5141 48.9877 85.7655C49.887 85.0762 50.7116 83.8744 51.074 82.7249L51.3584 81.8226H56.066H60.7736L61.4729 81.1705L62.172 80.5184L62.255 58.1849L62.338 35.8514L63.4168 35.304C64.6355 34.6856 65.4526 33.7521 65.755 32.633C66.0379 31.5852 65.8717 29.4197 65.4448 28.5928C64.9918 27.7149 63.7181 26.5926 62.8951 26.3461L62.255 26.1541V16.213V6.27189L61.603 5.57262L60.9511 4.87352L56.0414 4.82488L51.1318 4.7764L51.1301 4.32683C51.1278 3.66292 50.4232 2.26671 49.7517 1.59517C49.1001 0.943719 47.759 0.428566 45.9853 0.148826C44.8864 -0.0246619 42.8509 -0.0525524 42.2499 0.0973614ZM45.4929 1.639C45.9907 1.89301 46.2643 2.20396 46.6249 2.92564L47.1004 3.87742L47.2412 41.7294C47.3186 62.548 47.3805 79.9923 47.3785 80.4945C47.3743 81.5764 46.8588 82.9957 46.171 83.8183L45.6883 84.3959L43.8861 84.3851C41.3135 84.3698 36.5123 83.4481 30.1113 81.741C24.2104 80.1671 23.985 80.0612 23.2623 78.5201L22.8258 77.5892L22.7818 50.138L22.738 22.6869L23.2513 23.1187C23.9431 23.7009 24.364 23.7818 26.0429 23.6557C27.9974 23.5088 30.2307 22.9882 31.2233 22.448C32.2463 21.8911 33.3703 20.7081 33.9351 19.5936L34.364 18.7469V13.1158V7.48464L33.9075 6.61073C33.5345 5.89669 33.2697 5.63637 32.4613 5.18879C31.7876 4.81574 31.5525 4.60989 31.7245 4.54398C31.8635 4.49069 34.4006 3.74427 37.3625 2.88546C43.3217 1.15755 44.2655 1.01295 45.4929 1.639ZM48.8384 2.5765C49.3991 3.16819 49.6051 3.71223 49.7949 5.1008C49.8799 5.72336 49.965 22.6826 49.9909 44.1367L50.0366 82.0717L49.6609 82.9195C49.2266 83.8997 48.2639 84.9046 47.6039 85.0668C47.0456 85.2041 47.0403 85.135 47.549 84.3509C47.77 84.0104 48.1045 83.2248 48.2926 82.6051L48.6346 81.4781L48.5293 42.5118C48.4282 5.14081 48.4114 3.51599 48.1178 2.82603C47.9493 2.43041 47.8115 2.03562 47.8115 1.94862C47.8115 1.71603 48.315 2.02383 48.8384 2.5765ZM32.0073 6.36569C33.0716 7.26135 33.1114 7.50191 33.108 13.0084C33.1058 16.4333 33.0415 18.2044 32.9021 18.679C32.6537 19.5249 31.3973 20.9578 30.5048 21.413C29.8344 21.755 27.4737 22.2665 25.6227 22.4705C24.3138 22.615 23.9841 22.4354 23.4612 21.2933L23.049 20.3927L23.1034 15.4553L23.1579 10.5181L23.6068 9.5602C24.2351 8.21927 25.5012 7.02477 26.6475 6.69158C27.8884 6.33099 29.8115 5.99215 30.7404 5.97056C31.3415 5.95662 31.6269 6.04561 32.0073 6.36569ZM60.1896 6.68627C60.501 6.91404 60.5133 7.23695 60.5573 16.3953L60.6028 25.8686L56.7389 25.9132L52.875 25.9577V33.4285V40.8993H55.1992H57.5235L57.5695 38.4506L57.6153 36.0018H59.1051H60.5948V57.7184C60.5948 76.2023 60.5598 79.483 60.3594 79.7572C60.1384 80.0595 59.8577 80.0824 55.8143 80.1288L51.5047 80.1779L51.3943 54.8941C51.3335 40.9878 51.2683 24.3992 51.2494 18.0304L51.2148 6.45052L55.5411 6.45069C59.0147 6.45069 59.9307 6.49717 60.1896 6.68627ZM135.552 22.8222C134.074 23.1281 132.271 24.0019 131.236 24.9132C129.626 26.3298 128.574 28.616 128.691 30.4402L128.745 31.2703L131.945 31.3155C133.705 31.3402 135.274 31.2911 135.431 31.2061C135.589 31.1212 135.846 30.6881 136.002 30.2435C136.49 28.8561 137.642 28.1244 138.858 28.4297C139.855 28.6798 140.351 29.9747 139.881 31.099C139.456 32.1162 137.392 34.0743 134.224 36.4671C130.697 39.1301 128.574 41.0174 128.336 41.701C128.113 42.3407 128.113 45.5571 128.336 45.9738C128.503 46.2856 128.786 46.2949 138.098 46.2949C145.335 46.2949 147.736 46.2461 147.887 46.0957C148.025 45.9577 148.086 45.0996 148.086 43.3066C148.086 41.5136 148.025 40.6554 147.887 40.5175C147.743 40.3734 146.567 40.3183 143.64 40.3183H139.592L140.477 39.5134C140.964 39.0708 142.124 38.0976 143.055 37.3507C145.173 35.6517 146.107 34.597 146.89 33.0213C147.493 31.809 147.505 31.745 147.505 29.863C147.505 28.0323 147.48 27.8909 146.967 26.8494C145.616 24.107 142.43 22.5519 138.208 22.5736C137.386 22.578 136.191 22.6897 135.552 22.8222ZM67.6007 25.7419C67.4518 25.8908 67.4015 27.7753 67.4015 33.1991C67.4015 37.191 67.4468 40.5753 67.5023 40.7197C67.6529 41.112 71.9647 41.112 72.1153 40.7197C72.1707 40.5753 72.216 38.9657 72.216 37.1428C72.216 33.8452 72.218 33.8265 72.6236 33.4211C72.9048 33.1397 73.2156 33.0135 73.6272 33.0135C74.0387 33.0135 74.3495 33.1397 74.6308 33.4211C75.0365 33.8266 75.0383 33.8434 75.0408 37.198C75.0423 39.051 75.1041 40.6629 75.1783 40.7798C75.2794 40.9392 75.8702 40.9807 77.5415 40.9458L79.7698 40.8993L79.8147 37.176C79.8497 34.2606 79.8055 33.2678 79.6115 32.6001C79.0324 30.6082 77.5669 29.5241 75.4623 29.5308C74.2718 29.5344 73.1539 29.892 72.5096 30.4751C72.2301 30.7279 72.216 30.624 72.216 28.3135C72.216 26.0838 72.19 25.8724 71.895 25.7145C71.4344 25.4682 67.8518 25.4909 67.6007 25.7419ZM59.9722 29.5359L60.5948 29.7087V30.9298C60.5948 32.1502 60.5945 32.151 60.072 32.3331C59.7845 32.4334 59.1121 32.5154 58.5779 32.5154H57.6065V30.9383V29.3611L58.4781 29.3621C58.9574 29.3626 59.6299 29.4408 59.9722 29.5359ZM85.2873 29.6994C83.6437 30.1085 82.202 31.4179 81.7612 32.9019C81.4356 33.9983 81.434 36.8375 81.7582 37.9296C82.2772 39.6771 83.8318 40.8097 86.2165 41.1776C88.632 41.5501 91.0286 40.9488 92.2846 39.6547C93.2669 38.6423 93.5493 37.66 93.5493 35.2547C93.5493 33.4086 93.5152 33.1931 93.0843 32.3155C92.5465 31.2205 91.9246 30.6418 90.644 30.0441C89.8524 29.6747 89.4769 29.613 87.8217 29.5809C86.7716 29.5605 85.6312 29.6139 85.2873 29.6994ZM101.165 29.9267C100.697 30.1447 100.263 30.4055 100.201 30.5061C100.025 30.7902 99.7749 30.7221 99.7749 30.3904C99.7749 29.7991 99.4348 29.6931 97.5337 29.6931C96.3218 29.6931 95.6227 29.7614 95.4917 29.8924C95.2596 30.1245 95.2036 40.4194 95.4326 40.78C95.5335 40.9392 96.1079 40.9808 97.7127 40.946L99.8579 40.8993L99.941 37.3567L100.024 33.8142L100.49 33.4138C101.215 32.7909 102.098 32.9104 102.793 33.7255C102.81 33.7448 102.866 35.3668 102.918 37.3299L103.012 40.8993H105.254H107.495L107.54 37.176C107.589 33.0412 107.472 32.276 106.601 31.0746C105.52 29.5814 103.034 29.0566 101.165 29.9267ZM112.938 29.768C110.354 30.5755 109.149 32.4411 109.181 35.5868C109.214 38.9139 110.718 40.6749 113.957 41.1784C116.249 41.5347 118.706 40.8386 119.927 39.4873C120.541 38.8075 120.798 38.1745 120.633 37.7453C120.555 37.542 120.156 37.496 118.47 37.496C116.507 37.496 116.377 37.5169 115.909 37.911C115.638 38.1393 115.226 38.326 114.995 38.326C114.495 38.326 113.886 37.6306 113.886 37.0585V36.6659H117.175C119.659 36.6659 120.538 36.6116 120.767 36.4439C121.031 36.251 121.061 36.0433 120.992 34.8634C120.848 32.3766 119.487 30.4904 117.335 29.7952C116.328 29.47 113.939 29.4551 112.938 29.768ZM115.934 32.6509C116.084 32.8166 116.254 33.1901 116.312 33.481L116.418 34.0096H115.152C113.932 34.0096 113.886 33.9955 113.886 33.617C113.886 33.401 114.041 33.0274 114.231 32.7869C114.647 32.2578 115.516 32.1884 115.934 32.6509ZM88.5523 33.2333C88.8535 33.6385 88.9006 33.9332 88.899 35.4017C88.897 37.2659 88.6728 37.8891 87.9563 38.0232C86.7085 38.2568 86.1622 37.455 86.1618 35.39C86.1613 33.3117 86.5432 32.6207 87.6392 32.7155C88.0309 32.7495 88.3104 32.9079 88.5523 33.2333ZM7.83331e-05 44.8313C0.00406275 46.681 0.881133 53.0842 1.66723 57.003C4.97695 73.5043 12.1456 85.4294 22.957 92.4189C34.1217 99.6365 48.8692 101.691 67.3768 98.6057C69.4092 98.2668 71.1714 98.0879 73.1291 98.0211C81.5022 97.7356 90.8746 96.2175 98.8618 93.8531C106.821 91.497 112.482 88.839 118.02 84.8581L118.418 84.5722L118.299 85.3651C118.154 86.3267 117.589 88.2211 116.878 90.1235C116.401 91.401 115.55 95.1777 115.547 96.0284C115.544 97.2775 116.953 99.5865 117.718 99.5865C118.603 99.5865 120.793 96.8153 122.31 93.7759C123.342 91.7103 123.658 90.7351 125.35 84.3959C125.642 83.3002 126.062 81.7687 126.284 80.9925C126.505 80.2164 126.806 79.0023 126.953 78.2946C127.316 76.5454 127.155 76.0588 125.716 74.5725C124.131 72.9342 122.992 72.0922 121.954 71.7904C120.371 71.3302 120.361 71.3325 115.713 73.277C114.48 73.7927 113.098 74.3128 112.641 74.433C112.185 74.5531 111.101 74.8379 110.234 75.0661C106.339 76.0904 102.272 76.5428 96.7036 76.5707L92.2211 76.5931L92.1715 77.0191C92.1313 77.3649 92.3845 77.6969 93.5207 78.7878C95.5622 80.7477 95.9459 80.9628 97.9708 81.2837C100.474 81.6804 108.479 81.6651 111.533 81.2578C112.75 81.0956 113.778 80.9944 113.816 81.0329C113.909 81.1259 106.327 84.827 103.178 86.2257C92.7426 90.8611 82.0446 94.4679 72.382 96.6082L69.3107 97.2885L64.8283 97.113C53.2384 96.6593 44.2384 94.9367 35.5262 91.5046C20.6156 85.6309 10.2688 75.6934 4.90241 62.0929C2.96748 57.189 1.51847 50.9973 1.03038 45.5478C0.914835 44.2562 0.899063 44.2182 0.454966 44.1672C0.0191703 44.1169 -0.00158184 44.1471 7.83331e-05 44.8313ZM65.7829 51.63C65.6231 51.7914 65.576 53.4891 65.5778 58.9869C65.5793 62.9179 65.6426 66.2319 65.7184 66.3516C65.828 66.5245 66.7745 66.5582 70.3229 66.5153C74.4959 66.465 74.8501 66.437 75.7155 66.0888C77.8747 65.2204 78.9363 63.5906 79.2052 60.7309C79.4074 58.5833 79.1878 55.9299 78.7206 54.8738C78.2015 53.6999 77.1927 52.7287 75.8296 52.0897L74.6233 51.5244L70.3068 51.4723C66.9911 51.4321 65.9422 51.4688 65.7829 51.63ZM84.3137 55.3438C82.167 56.032 80.9842 57.591 80.7736 60.0101C80.4269 63.9894 81.9325 66.1989 85.3518 66.7295C88.7323 67.2539 91.5986 66.0584 92.4883 63.7528C92.7826 62.9898 92.8522 62.4554 92.859 60.9044C92.8664 59.2032 92.8216 58.8956 92.4474 58.0811C91.9148 56.9217 91.1412 56.1479 89.9809 55.6136C89.1918 55.2504 88.7945 55.1865 87.0746 55.1453C85.6555 55.1112 84.8613 55.1684 84.3137 55.3438ZM97.634 55.4401C96.8084 55.7081 96.3766 55.9802 95.6942 56.6627C94.5014 57.8555 94.2404 58.7537 94.3239 61.3787C94.3804 63.1495 94.427 63.3879 94.8804 64.2188C95.7674 65.8444 97.2473 66.6309 99.7749 66.8203C101.339 66.9375 103.216 66.5611 104.247 65.9238C105.818 64.9528 106.512 63.1467 106.379 60.3782C106.255 57.8125 105.487 56.572 103.427 55.6108C102.641 55.2436 102.25 55.1785 100.605 55.1401C99.0393 55.1034 98.5047 55.1576 97.634 55.4401ZM127.215 55.3259C125.41 55.9128 124.238 57.0367 123.763 58.6375C123.42 59.7904 123.44 62.2907 123.8 63.4171C124.188 64.6287 125.417 65.863 126.758 66.3873C128.168 66.9385 130.792 66.9362 132.226 66.3825C133.473 65.9011 134.786 64.6372 135.22 63.4996C135.703 62.2357 135.585 62.1585 133.09 62.1031L130.997 62.0568L130.574 62.7256C130.197 63.3235 130.082 63.3947 129.494 63.3947C128.488 63.3947 128.247 62.9093 128.247 60.8837C128.247 59.4055 128.28 59.2353 128.649 58.8427C129.207 58.2486 129.847 58.2789 130.39 58.925C130.627 59.2059 130.82 59.5069 130.82 59.5939C130.82 59.6884 131.699 59.7333 133.002 59.7056C135.569 59.6512 135.702 59.5725 135.247 58.3798C134.861 57.3689 133.766 56.3071 132.48 55.6965C131.518 55.2393 131.213 55.1793 129.658 55.1411C128.523 55.1132 127.671 55.1777 127.215 55.3259ZM139.968 55.4401C139.147 55.7068 138.713 55.9794 138.052 56.6429C136.848 57.8517 136.568 58.8025 136.661 61.3753C136.724 63.1337 136.775 63.395 137.22 64.2188C138.186 66.0085 139.847 66.7883 142.69 66.7883C145.592 66.7883 147.217 66.0043 148.167 64.1466C148.648 63.2076 148.667 63.0854 148.667 60.9994C148.667 59.0857 148.622 58.7311 148.285 57.9991C147.767 56.8732 147.08 56.207 145.868 55.653C144.97 55.2431 144.622 55.1821 142.939 55.1416C141.371 55.1038 140.841 55.1571 139.968 55.4401ZM156.251 55.346C155.948 55.4776 155.481 55.7413 155.214 55.9319C154.751 56.2611 154.727 56.2629 154.727 55.9684C154.727 55.3681 154.393 55.2598 152.541 55.2598C150.944 55.2598 150.736 55.294 150.582 55.5809C150.376 55.9657 150.347 66.0256 150.55 66.3468C150.651 66.5057 151.209 66.5479 152.748 66.5128L154.81 66.466L154.893 62.9796C154.95 60.5903 155.042 59.3764 155.188 59.1217C155.584 58.4283 156.694 58.4338 157.093 59.131C157.232 59.3744 157.327 60.6365 157.383 62.9796L157.466 66.466H159.541H161.616L161.699 62.8721C161.774 59.6395 161.814 59.2431 162.099 58.9291C162.5 58.4864 163.258 58.4782 163.692 58.9122C164.002 59.2225 164.024 59.4656 164.024 62.634C164.024 64.4984 164.069 66.142 164.124 66.2864C164.209 66.5064 164.559 66.549 166.28 66.549C168.309 66.549 168.335 66.5442 168.434 66.1507C168.489 65.9318 168.509 64.0398 168.478 61.9465L168.423 58.1404L167.923 57.1622C167.236 55.82 166.264 55.211 164.665 55.1207C163.685 55.0654 163.394 55.1192 162.615 55.5004C162.116 55.7446 161.567 56.1226 161.396 56.3403L161.085 56.7362L160.712 56.2315C160.17 55.4992 159.17 55.1006 157.881 55.1039C157.288 55.1056 156.554 55.2145 156.251 55.346ZM73.3994 55.5198C74.1804 55.9237 74.3743 56.615 74.3743 58.9952C74.3743 62.2581 74.0441 62.7306 71.764 62.7306H70.3898V58.9952V55.2598H71.6433C72.4563 55.2598 73.0733 55.3511 73.3994 55.5198ZM108.275 55.4591C108.043 55.6912 107.987 65.9861 108.216 66.3466C108.317 66.5059 108.891 66.5475 110.496 66.5127L112.641 66.466L112.724 63.3947C112.812 60.1612 112.914 59.7005 113.596 59.4754C113.801 59.4076 114.717 59.3092 115.63 59.2567L117.29 59.1612L117.337 57.4423C117.368 56.3174 117.318 55.6433 117.192 55.4916C116.933 55.1785 115.131 55.187 114.228 55.5054C113.846 55.6403 113.313 55.907 113.045 56.0977L112.558 56.4445V56.0514C112.558 55.358 112.281 55.2598 110.317 55.2598C109.105 55.2598 108.406 55.3281 108.275 55.4591ZM87.7544 58.5971C88.0136 58.8832 88.081 59.2602 88.1277 60.6838C88.1635 61.7759 88.1114 62.5981 87.9875 62.8971C87.7378 63.4998 87.0191 63.7769 86.3295 63.5365C85.652 63.3004 85.4485 62.537 85.5218 60.5053C85.5748 59.0369 85.6178 58.8523 85.9724 58.5654C86.4989 58.1392 87.3533 58.1545 87.7544 58.5971ZM101.174 58.5088C101.568 58.9028 101.684 59.51 101.682 61.1634C101.68 62.8213 101.432 63.4603 100.74 63.5899C99.537 63.8151 98.9432 63.007 98.949 61.1535C98.9537 59.7094 99.1701 58.7367 99.5485 58.4601C99.9491 58.1671 100.86 58.1944 101.174 58.5088ZM143.504 58.5046C143.923 58.923 144.143 60.0724 144.065 61.43C143.985 62.8329 143.688 63.4787 143.074 63.5841C141.905 63.785 141.438 63.2523 141.319 61.5788C141.213 60.0969 141.389 58.9685 141.789 58.5682C142.178 58.1791 143.143 58.1434 143.504 58.5046ZM117.572 62.2658C117.343 62.4945 117.293 65.9995 117.513 66.3468C117.614 66.5057 118.172 66.5479 119.71 66.5128L121.772 66.466L121.819 64.4039C121.854 62.8658 121.812 62.3074 121.653 62.2067C121.306 61.9864 117.801 62.037 117.572 62.2658Z" fill="#0FBFBF"/>
<path fill-rule="evenodd" clip-rule="evenodd" d="M42.2499 0.0973614C41.6205 0.25458 29.1293 3.93868 26.6442 4.7002C24.1669 5.45923 24.1493 5.46819 23.2573 6.40669C22.7642 6.92549 22.1666 7.76405 21.9292 8.27008L21.4977 9.18998V43.3896C21.4977 75.9393 21.5121 77.6307 21.7975 78.4488C22.232 79.694 22.9475 80.5905 23.8868 81.0664C26.0188 82.1467 34.0669 84.1661 41.0974 85.385C47.4568 86.4874 48.011 86.5141 48.9877 85.7655C49.887 85.0762 50.7116 83.8744 51.074 82.7249L51.3584 81.8226H56.066H60.7736L61.4729 81.1705L62.172 80.5184L62.255 58.1849L62.338 35.8514L63.4168 35.304C64.6355 34.6856 65.4526 33.7521 65.755 32.633C66.0379 31.5852 65.8717 29.4197 65.4448 28.5928C64.9918 27.7149 63.7181 26.5926 62.8951 26.3461L62.255 26.1541V16.213V6.27189L61.603 5.57262L60.9511 4.87352L56.0414 4.82488L51.1318 4.7764L51.1301 4.32683C51.1278 3.66292 50.4232 2.26671 49.7517 1.59517C49.1001 0.943719 47.759 0.428566 45.9853 0.148826C44.8864 -0.0246619 42.8509 -0.0525524 42.2499 0.0973614ZM45.4929 1.639C45.9907 1.89301 46.2643 2.20396 46.6249 2.92564L47.1004 3.87742L47.2412 41.7294C47.3186 62.548 47.3805 79.9923 47.3785 80.4945C47.3743 81.5764 46.8588 82.9957 46.171 83.8183L45.6883 84.3959L43.8861 84.3851C41.3135 84.3698 36.5123 83.4481 30.1113 81.741C24.2104 80.1671 23.985 80.0612 23.2623 78.5201L22.8258 77.5892L22.7818 50.138L22.738 22.6869L23.2513 23.1187C23.9431 23.7009 24.364 23.7818 26.0429 23.6557C27.9974 23.5088 30.2307 22.9882 31.2233 22.448C32.2463 21.8911 33.3703 20.7081 33.9351 19.5936L34.364 18.7469V13.1158V7.48464L33.9075 6.61073C33.5345 5.89669 33.2697 5.63637 32.4613 5.18879C31.7876 4.81574 31.5525 4.60989 31.7245 4.54398C31.8635 4.49069 34.4006 3.74427 37.3625 2.88546C43.3217 1.15755 44.2655 1.01295 45.4929 1.639ZM48.8384 2.5765C49.3991 3.16819 49.6051 3.71223 49.7949 5.1008C49.8799 5.72336 49.965 22.6826 49.9909 44.1367L50.0366 82.0717L49.6609 82.9195C49.2266 83.8997 48.2639 84.9046 47.6039 85.0668C47.0456 85.2041 47.0403 85.135 47.549 84.3509C47.77 84.0104 48.1045 83.2248 48.2926 82.6051L48.6346 81.4781L48.5293 42.5118C48.4282 5.14081 48.4114 3.51599 48.1178 2.82603C47.9493 2.43041 47.8115 2.03562 47.8115 1.94862C47.8115 1.71603 48.315 2.02383 48.8384 2.5765ZM32.0073 6.36569C33.0716 7.26135 33.1114 7.50191 33.108 13.0084C33.1058 16.4333 33.0415 18.2044 32.9021 18.679C32.6537 19.5249 31.3973 20.9578 30.5048 21.413C29.8344 21.755 27.4737 22.2665 25.6227 22.4705C24.3138 22.615 23.9841 22.4354 23.4612 21.2933L23.049 20.3927L23.1034 15.4553L23.1579 10.5181L23.6068 9.5602C24.2351 8.21927 25.5012 7.02477 26.6475 6.69158C27.8884 6.33099 29.8115 5.99215 30.7404 5.97056C31.3415 5.95662 31.6269 6.04561 32.0073 6.36569ZM60.1896 6.68627C60.501 6.91404 60.5133 7.23695 60.5573 16.3953L60.6028 25.8686L56.7389 25.9132L52.875 25.9577V33.4285V40.8993H55.1992H57.5235L57.5695 38.4506L57.6153 36.0018H59.1051H60.5948V57.7184C60.5948 76.2023 60.5598 79.483 60.3594 79.7572C60.1384 80.0595 59.8577 80.0824 55.8143 80.1288L51.5047 80.1779L51.3943 54.8941C51.3335 40.9878 51.2683 24.3992 51.2494 18.0304L51.2148 6.45052L55.5411 6.45069C59.0147 6.45069 59.9307 6.49717 60.1896 6.68627ZM67.6007 25.7419C67.4518 25.8908 67.4015 27.7753 67.4015 33.1991C67.4015 37.191 67.4468 40.5753 67.5023 40.7197C67.6529 41.112 71.9647 41.112 72.1153 40.7197C72.1707 40.5753 72.216 38.9657 72.216 37.1428C72.216 33.8452 72.218 33.8265 72.6236 33.4211C72.9048 33.1397 73.2156 33.0135 73.6272 33.0135C74.0387 33.0135 74.3495 33.1397 74.6308 33.4211C75.0365 33.8266 75.0383 33.8434 75.0408 37.198C75.0423 39.051 75.1041 40.6629 75.1783 40.7798C75.2794 40.9392 75.8702 40.9807 77.5415 40.9458L79.7698 40.8993L79.8147 37.176C79.8497 34.2606 79.8055 33.2678 79.6115 32.6001C79.0324 30.6082 77.5669 29.5241 75.4623 29.5308C74.2718 29.5344 73.1539 29.892 72.5096 30.4751C72.2301 30.7279 72.216 30.624 72.216 28.3135C72.216 26.0838 72.19 25.8724 71.895 25.7145C71.4344 25.4682 67.8518 25.4909 67.6007 25.7419ZM59.9722 29.5359L60.5948 29.7087V30.9298C60.5948 32.1502 60.5945 32.151 60.072 32.3331C59.7845 32.4334 59.1121 32.5154 58.5779 32.5154H57.6065V30.9383V29.3611L58.4781 29.3621C58.9574 29.3626 59.6299 29.4408 59.9722 29.5359ZM85.2873 29.6994C83.6437 30.1085 82.202 31.4179 81.7612 32.9019C81.4356 33.9983 81.434 36.8375 81.7582 37.9296C82.2772 39.6771 83.8318 40.8097 86.2165 41.1776C88.632 41.5501 91.0286 40.9488 92.2846 39.6547C93.2669 38.6423 93.5493 37.66 93.5493 35.2547C93.5493 33.4086 93.5152 33.1931 93.0843 32.3155C92.5465 31.2205 91.9246 30.6418 90.644 30.0441C89.8524 29.6747 89.4769 29.613 87.8217 29.5809C86.7716 29.5605 85.6312 29.6139 85.2873 29.6994ZM101.165 29.9267C100.697 30.1447 100.263 30.4055 100.201 30.5061C100.025 30.7902 99.7749 30.7221 99.7749 30.3904C99.7749 29.7991 99.4348 29.6931 97.5337 29.6931C96.3218 29.6931 95.6227 29.7614 95.4917 29.8924C95.2596 30.1245 95.2036 40.4194 95.4326 40.78C95.5335 40.9392 96.1079 40.9808 97.7127 40.946L99.8579 40.8993L99.941 37.3567L100.024 33.8142L100.49 33.4138C101.215 32.7909 102.098 32.9104 102.793 33.7255C102.81 33.7448 102.866 35.3668 102.918 37.3299L103.012 40.8993H105.254H107.495L107.54 37.176C107.589 33.0412 107.472 32.276 106.601 31.0746C105.52 29.5814 103.034 29.0566 101.165 29.9267ZM112.938 29.768C110.354 30.5755 109.149 32.4411 109.181 35.5868C109.214 38.9139 110.718 40.6749 113.957 41.1784C116.249 41.5347 118.706 40.8386 119.927 39.4873C120.541 38.8075 120.798 38.1745 120.633 37.7453C120.555 37.542 120.156 37.496 118.47 37.496C116.507 37.496 116.377 37.5169 115.909 37.911C115.638 38.1393 115.226 38.326 114.995 38.326C114.495 38.326 113.886 37.6306 113.886 37.0585V36.6659H117.175C119.659 36.6659 120.538 36.6116 120.767 36.4439C121.031 36.251 121.061 36.0433 120.992 34.8634C120.848 32.3766 119.487 30.4904 117.335 29.7952C116.328 29.47 113.939 29.4551 112.938 29.768ZM115.934 32.6509C116.084 32.8166 116.254 33.1901 116.312 33.481L116.418 34.0096H115.152C113.932 34.0096 113.886 33.9955 113.886 33.617C113.886 33.401 114.041 33.0274 114.231 32.7869C114.647 32.2578 115.516 32.1884 115.934 32.6509ZM88.5523 33.2333C88.8535 33.6385 88.9006 33.9332 88.899 35.4017C88.897 37.2659 88.6728 37.8891 87.9563 38.0232C86.7085 38.2568 86.1622 37.455 86.1618 35.39C86.1613 33.3117 86.5432 32.6207 87.6392 32.7155C88.0309 32.7495 88.3104 32.9079 88.5523 33.2333ZM7.83331e-05 44.8313C0.00406275 46.681 0.881133 53.0842 1.66723 57.003C4.97695 73.5043 12.1456 85.4294 22.957 92.4189C34.1217 99.6365 48.8692 101.691 67.3768 98.6057C69.4092 98.2668 71.1714 98.0879 73.1291 98.0211C81.5022 97.7356 90.8746 96.2175 98.8618 93.8531C106.821 91.497 112.482 88.839 118.02 84.8581L118.418 84.5722L118.299 85.3651C118.154 86.3267 117.589 88.2211 116.878 90.1235C116.401 91.401 115.55 95.1777 115.547 96.0284C115.544 97.2775 116.953 99.5865 117.718 99.5865C118.603 99.5865 120.793 96.8153 122.31 93.7759C123.342 91.7103 123.658 90.7351 125.35 84.3959C125.642 83.3002 126.062 81.7687 126.284 80.9925C126.505 80.2164 126.806 79.0023 126.953 78.2946C127.316 76.5454 127.155 76.0588 125.716 74.5725C124.131 72.9342 122.992 72.0922 121.954 71.7904C120.371 71.3302 120.361 71.3325 115.713 73.277C114.48 73.7927 113.098 74.3128 112.641 74.433C112.185 74.5531 111.101 74.8379 110.234 75.0661C106.339 76.0904 102.272 76.5428 96.7036 76.5707L92.2211 76.5931L92.1715 77.0191C92.1313 77.3649 92.3845 77.6969 93.5207 78.7878C95.5622 80.7477 95.9459 80.9628 97.9708 81.2837C100.474 81.6804 108.479 81.6651 111.533 81.2578C112.75 81.0956 113.778 80.9944 113.816 81.0329C113.909 81.1259 106.327 84.827 103.178 86.2257C92.7426 90.8611 82.0446 94.4679 72.382 96.6082L69.3107 97.2885L64.8283 97.113C53.2384 96.6593 44.2384 94.9367 35.5262 91.5046C20.6156 85.6309 10.2688 75.6934 4.90241 62.0929C2.96748 57.189 1.51847 50.9973 1.03038 45.5478C0.914835 44.2562 0.899063 44.2182 0.454966 44.1672C0.0191703 44.1169 -0.00158184 44.1471 7.83331e-05 44.8313ZM65.7829 51.63C65.6231 51.7914 65.576 53.4891 65.5778 58.9869C65.5793 62.9179 65.6426 66.2319 65.7184 66.3516C65.828 66.5245 66.7745 66.5582 70.3229 66.5153C74.4959 66.465 74.8501 66.437 75.7155 66.0888C77.8747 65.2204 78.9363 63.5906 79.2052 60.7309C79.4074 58.5833 79.1878 55.9299 78.7206 54.8738C78.2015 53.6999 77.1927 52.7287 75.8296 52.0897L74.6233 51.5244L70.3068 51.4723C66.9911 51.4321 65.9422 51.4688 65.7829 51.63ZM84.3137 55.3438C82.167 56.032 80.9842 57.591 80.7736 60.0101C80.4269 63.9894 81.9325 66.1989 85.3518 66.7295C88.7323 67.2539 91.5986 66.0584 92.4883 63.7528C92.7826 62.9898 92.8522 62.4554 92.859 60.9044C92.8664 59.2032 92.8216 58.8956 92.4474 58.0811C91.9148 56.9217 91.1412 56.1479 89.9809 55.6136C89.1918 55.2504 88.7945 55.1865 87.0746 55.1453C85.6555 55.1112 84.8613 55.1684 84.3137 55.3438ZM97.634 55.4401C96.8084 55.7081 96.3766 55.9802 95.6942 56.6627C94.5014 57.8555 94.2404 58.7537 94.3239 61.3787C94.3804 63.1495 94.427 63.3879 94.8804 64.2188C95.7674 65.8444 97.2473 66.6309 99.7749 66.8203C101.339 66.9375 103.216 66.5611 104.247 65.9238C105.818 64.9528 106.512 63.1467 106.379 60.3782C106.255 57.8125 105.487 56.572 103.427 55.6108C102.641 55.2436 102.25 55.1785 100.605 55.1401C99.0393 55.1034 98.5047 55.1576 97.634 55.4401ZM127.215 55.3259C125.41 55.9128 124.238 57.0367 123.763 58.6375C123.42 59.7904 123.44 62.2907 123.8 63.4171C124.188 64.6287 125.417 65.863 126.758 66.3873C128.168 66.9385 130.792 66.9362 132.226 66.3825C133.473 65.9011 134.786 64.6372 135.22 63.4996C135.703 62.2357 135.585 62.1585 133.09 62.1031L130.997 62.0568L130.574 62.7256C130.197 63.3235 130.082 63.3947 129.494 63.3947C128.488 63.3947 128.247 62.9093 128.247 60.8837C128.247 59.4055 128.28 59.2353 128.649 58.8427C129.207 58.2486 129.847 58.2789 130.39 58.925C130.627 59.2059 130.82 59.5069 130.82 59.5939C130.82 59.6884 131.699 59.7333 133.002 59.7056C135.569 59.6512 135.702 59.5725 135.247 58.3798C134.861 57.3689 133.766 56.3071 132.48 55.6965C131.518 55.2393 131.213 55.1793 129.658 55.1411C128.523 55.1132 127.671 55.1777 127.215 55.3259ZM139.968 55.4401C139.147 55.7068 138.713 55.9794 138.052 56.6429C136.848 57.8517 136.568 58.8025 136.661 61.3753C136.724 63.1337 136.775 63.395 137.22 64.2188C138.186 66.0085 139.847 66.7883 142.69 66.7883C145.592 66.7883 147.217 66.0043 148.167 64.1466C148.648 63.2076 148.667 63.0854 148.667 60.9994C148.667 59.0857 148.622 58.7311 148.285 57.9991C147.767 56.8732 147.08 56.207 145.868 55.653C144.97 55.2431 144.622 55.1821 142.939 55.1416C141.371 55.1038 140.841 55.1571 139.968 55.4401ZM156.251 55.346C155.948 55.4776 155.481 55.7413 155.214 55.9319C154.751 56.2611 154.727 56.2629 154.727 55.9684C154.727 55.3681 154.393 55.2598 152.541 55.2598C150.944 55.2598 150.736 55.294 150.582 55.5809C150.376 55.9657 150.347 66.0256 150.55 66.3468C150.651 66.5057 151.209 66.5479 152.748 66.5128L154.81 66.466L154.893 62.9796C154.95 60.5903 155.042 59.3764 155.188 59.1217C155.584 58.4283 156.694 58.4338 157.093 59.131C157.232 59.3744 157.327 60.6365 157.383 62.9796L157.466 66.466H159.541H161.616L161.699 62.8721C161.774 59.6395 161.814 59.2431 162.099 58.9291C162.5 58.4864 163.258 58.4782 163.692 58.9122C164.002 59.2225 164.024 59.4656 164.024 62.634C164.024 64.4984 164.069 66.142 164.124 66.2864C164.209 66.5064 164.559 66.549 166.28 66.549C168.309 66.549 168.335 66.5442 168.434 66.1507C168.489 65.9318 168.509 64.0398 168.478 61.9465L168.423 58.1404L167.923 57.1622C167.236 55.82 166.264 55.211 164.665 55.1207C163.685 55.0654 163.394 55.1192 162.615 55.5004C162.116 55.7446 161.567 56.1226 161.396 56.3403L161.085 56.7362L160.712 56.2315C160.17 55.4992 159.17 55.1006 157.881 55.1039C157.288 55.1056 156.554 55.2145 156.251 55.346ZM73.3994 55.5198C74.1804 55.9237 74.3743 56.615 74.3743 58.9952C74.3743 62.2581 74.0441 62.7306 71.764 62.7306H70.3898V58.9952V55.2598H71.6433C72.4563 55.2598 73.0733 55.3511 73.3994 55.5198ZM108.275 55.4591C108.043 55.6912 107.987 65.9861 108.216 66.3466C108.317 66.5059 108.891 66.5475 110.496 66.5127L112.641 66.466L112.724 63.3947C112.812 60.1612 112.914 59.7005 113.596 59.4754C113.801 59.4076 114.717 59.3092 115.63 59.2567L117.29 59.1612L117.337 57.4423C117.368 56.3174 117.318 55.6433 117.192 55.4916C116.933 55.1785 115.131 55.187 114.228 55.5054C113.846 55.6403 113.313 55.907 113.045 56.0977L112.558 56.4445V56.0514C112.558 55.358 112.281 55.2598 110.317 55.2598C109.105 55.2598 108.406 55.3281 108.275 55.4591ZM87.7544 58.5971C88.0136 58.8832 88.081 59.2602 88.1277 60.6838C88.1635 61.7759 88.1114 62.5981 87.9875 62.8971C87.7378 63.4998 87.0191 63.7769 86.3295 63.5365C85.652 63.3004 85.4485 62.537 85.5218 60.5053C85.5748 59.0369 85.6178 58.8523 85.9724 58.5654C86.4989 58.1392 87.3533 58.1545 87.7544 58.5971ZM101.174 58.5088C101.568 58.9028 101.684 59.51 101.682 61.1634C101.68 62.8213 101.432 63.4603 100.74 63.5899C99.537 63.8151 98.9432 63.007 98.949 61.1535C98.9537 59.7094 99.1701 58.7367 99.5485 58.4601C99.9491 58.1671 100.86 58.1944 101.174 58.5088ZM143.504 58.5046C143.923 58.923 144.143 60.0724 144.065 61.43C143.985 62.8329 143.688 63.4787 143.074 63.5841C141.905 63.785 141.438 63.2523 141.319 61.5788C141.213 60.0969 141.389 58.9685 141.789 58.5682C142.178 58.1791 143.143 58.1434 143.504 58.5046ZM117.572 62.2658C117.343 62.4945 117.293 65.9995 117.513 66.3468C117.614 66.5057 118.172 66.5479 119.71 66.5128L121.772 66.466L121.819 64.4039C121.854 62.8658 121.812 62.3074 121.653 62.2067C121.306 61.9864 117.801 62.037 117.572 62.2658Z" fill="#0BADBF"/>
<path fill-rule="evenodd" clip-rule="evenodd" d="M42.2499 0.0973614C41.6205 0.25458 29.1293 3.93868 26.6442 4.7002C24.1669 5.45923 24.1493 5.46819 23.2573 6.40669C22.7642 6.92549 22.1666 7.76405 21.9292 8.27008L21.4977 9.18998V43.3896C21.4977 75.9393 21.5121 77.6307 21.7975 78.4488C22.232 79.694 22.9475 80.5905 23.8868 81.0664C26.0188 82.1467 34.0669 84.1661 41.0974 85.385C47.4568 86.4874 48.011 86.5141 48.9877 85.7655C49.887 85.0762 50.7116 83.8744 51.074 82.7249L51.3584 81.8226H56.066H60.7736L61.4729 81.1705L62.172 80.5184L62.2153 58.0742L62.2585 35.6301L61.8833 35.7307C61.6767 35.786 61.3024 35.8323 61.0514 35.8335L60.5948 35.8358V57.6354C60.5948 76.191 60.5598 79.483 60.3594 79.7572C60.1384 80.0595 59.8577 80.0824 55.8143 80.1288L51.5047 80.1779L51.3943 54.8941C51.3335 40.9878 51.2683 24.3992 51.2494 18.0304L51.2148 6.45052L55.5411 6.45069C59.0147 6.45069 59.9307 6.49717 60.1896 6.68627C60.5012 6.91404 60.5133 7.23778 60.5573 16.4813L60.6028 26.0408L61.0553 26.0431C61.3042 26.0442 61.6759 26.0904 61.8814 26.1453L62.255 26.2455V16.2587V6.27189L61.603 5.57262L60.9511 4.87352L56.0414 4.82488L51.1318 4.7764L51.1301 4.32683C51.1278 3.66292 50.4232 2.26671 49.7517 1.59517C49.1001 0.943719 47.759 0.428566 45.9853 0.148826C44.8864 -0.0246619 42.8509 -0.0525524 42.2499 0.0973614ZM45.4929 1.639C45.9907 1.89301 46.2643 2.20396 46.6249 2.92564L47.1004 3.87742L47.2412 41.7294C47.3186 62.548 47.3805 79.9923 47.3785 80.4945C47.3743 81.5764 46.8588 82.9957 46.171 83.8183L45.6883 84.3959L43.8861 84.3851C41.3135 84.3698 36.5123 83.4481 30.1113 81.741C24.2104 80.1671 23.985 80.0612 23.2623 78.5201L22.8258 77.5892L22.7818 50.138L22.738 22.6869L23.2513 23.1187C23.9431 23.7009 24.364 23.7818 26.0429 23.6557C27.9974 23.5088 30.2307 22.9882 31.2233 22.448C32.2463 21.8911 33.3703 20.7081 33.9351 19.5936L34.364 18.7469V13.1158V7.48464L33.9075 6.61073C33.5345 5.89669 33.2697 5.63637 32.4613 5.18879C31.7876 4.81574 31.5525 4.60989 31.7245 4.54398C31.8635 4.49069 34.4006 3.74427 37.3625 2.88546C43.3217 1.15755 44.2655 1.01295 45.4929 1.639ZM48.8384 2.5765C49.3991 3.16819 49.6051 3.71223 49.7949 5.1008C49.8799 5.72336 49.965 22.6826 49.9909 44.1367L50.0366 82.0717L49.6609 82.9195C49.2266 83.8997 48.2639 84.9046 47.6039 85.0668C47.0456 85.2041 47.0403 85.135 47.549 84.3509C47.77 84.0104 48.1045 83.2248 48.2926 82.6051L48.6346 81.4781L48.5293 42.5118C48.4282 5.14081 48.4114 3.51599 48.1178 2.82603C47.9493 2.43041 47.8115 2.03562 47.8115 1.94862C47.8115 1.71603 48.315 2.02383 48.8384 2.5765ZM32.0073 6.36569C33.0716 7.26135 33.1114 7.50191 33.108 13.0084C33.1058 16.4333 33.0415 18.2044 32.9021 18.679C32.6537 19.5249 31.3973 20.9578 30.5048 21.413C29.8344 21.755 27.4737 22.2665 25.6227 22.4705C24.3138 22.615 23.9841 22.4354 23.4612 21.2933L23.049 20.3927L23.1034 15.4553L23.1579 10.5181L23.6068 9.5602C24.2351 8.21927 25.5012 7.02477 26.6475 6.69158C27.8884 6.33099 29.8115 5.99215 30.7404 5.97056C31.3415 5.95662 31.6269 6.04561 32.0073 6.36569ZM60.6059 30.9383C60.6054 32.1416 60.6283 32.2362 60.8491 31.9442C61.1566 31.5376 61.154 30.5676 60.8438 30.0252C60.6234 29.6393 60.6066 29.7039 60.6059 30.9383ZM7.83331e-05 44.8313C0.00406275 46.681 0.881133 53.0842 1.66723 57.003C4.97695 73.5043 12.1456 85.4294 22.957 92.4189C34.1217 99.6365 48.8692 101.691 67.3768 98.6057C69.4092 98.2668 71.1714 98.0879 73.1291 98.0211C81.5022 97.7356 90.8746 96.2175 98.8618 93.8531C106.821 91.497 112.482 88.839 118.02 84.8581L118.418 84.5722L118.299 85.3651C118.154 86.3267 117.589 88.2211 116.878 90.1235C116.401 91.401 115.55 95.1777 115.547 96.0284C115.544 97.2775 116.953 99.5865 117.718 99.5865C118.603 99.5865 120.793 96.8153 122.31 93.7759C123.342 91.7103 123.658 90.7351 125.35 84.3959C125.642 83.3002 126.062 81.7687 126.284 80.9925C126.505 80.2164 126.806 79.0023 126.953 78.2946C127.316 76.5454 127.155 76.0588 125.716 74.5725C124.131 72.9342 122.992 72.0922 121.954 71.7904C120.371 71.3302 120.361 71.3325 115.713 73.277C114.48 73.7927 113.098 74.3128 112.641 74.433C112.185 74.5531 111.101 74.8379 110.234 75.0661C106.339 76.0904 102.272 76.5428 96.7036 76.5707L92.2211 76.5931L92.1715 77.0191C92.1313 77.3649 92.3845 77.6969 93.5207 78.7878C95.5622 80.7477 95.9459 80.9628 97.9708 81.2837C100.474 81.6804 108.479 81.6651 111.533 81.2578C112.75 81.0956 113.778 80.9944 113.816 81.0329C113.909 81.1259 106.327 84.827 103.178 86.2257C92.7426 90.8611 82.0446 94.4679 72.382 96.6082L69.3107 97.2885L64.8283 97.113C53.2384 96.6593 44.2384 94.9367 35.5262 91.5046C20.6156 85.6309 10.2688 75.6934 4.90241 62.0929C2.96748 57.189 1.51847 50.9973 1.03038 45.5478C0.914835 44.2562 0.899063 44.2182 0.454966 44.1672C0.0191703 44.1169 -0.00158184 44.1471 7.83331e-05 44.8313ZM167.012 55.9867C167.012 56.021 167.143 56.1518 167.303 56.2772C167.566 56.4835 167.572 56.4777 167.365 56.2144C167.148 55.9379 167.012 55.85 167.012 55.9867Z" fill="#109FBF"/>
<path fill-rule="evenodd" clip-rule="evenodd" d="M42.2499 0.0973614C41.6205 0.25458 29.1293 3.93868 26.6442 4.7002C24.1669 5.45923 24.1493 5.46819 23.2573 6.40669C22.7642 6.92549 22.1666 7.76405 21.9292 8.27008L21.4977 9.18998V43.3896C21.4977 75.9393 21.5121 77.6307 21.7975 78.4488C22.232 79.694 22.9475 80.5905 23.8868 81.0664C26.0188 82.1467 34.0669 84.1661 41.0974 85.385C47.4568 86.4874 48.011 86.5141 48.9877 85.7655C49.887 85.0762 50.7116 83.8744 51.074 82.7249L51.3584 81.8226H56.066H60.7736L61.4729 81.1705L62.172 80.5184L62.2153 58.0904L62.2585 35.6626L61.8833 35.7388C61.6767 35.7807 61.3024 35.8584 61.0514 35.9115L60.5948 36.0081V57.7215C60.5948 76.2028 60.5598 79.483 60.3594 79.7572C60.1384 80.0595 59.8577 80.0824 55.8143 80.1288L51.5047 80.1779L51.3943 54.8941C51.3335 40.9878 51.2683 24.3992 51.2494 18.0304L51.2148 6.45052L55.5411 6.45069C59.0147 6.45069 59.9307 6.49717 60.1896 6.68627C60.501 6.91404 60.5133 7.23695 60.5573 16.3961L60.6028 25.8704L61.0138 25.9556C61.2399 26.0024 61.6117 26.0796 61.8399 26.1269L62.255 26.2131V16.2424V6.27189L61.603 5.57262L60.9511 4.87352L56.0414 4.82488L51.1318 4.7764L51.1301 4.32683C51.1278 3.66292 50.4232 2.26671 49.7517 1.59517C49.1001 0.943719 47.759 0.428566 45.9853 0.148826C44.8864 -0.0246619 42.8509 -0.0525524 42.2499 0.0973614ZM45.4929 1.639C45.9907 1.89301 46.2643 2.20396 46.6249 2.92564L47.1004 3.87742L47.2412 41.7294C47.3186 62.548 47.3805 79.9923 47.3785 80.4945C47.3743 81.5764 46.8588 82.9957 46.171 83.8183L45.6883 84.3959L43.8861 84.3851C41.3135 84.3698 36.5123 83.4481 30.1113 81.741C24.2104 80.1671 23.985 80.0612 23.2623 78.5201L22.8258 77.5892L22.7818 50.138L22.738 22.6869L23.2513 23.1187C23.9431 23.7009 24.364 23.7818 26.0429 23.6557C27.9974 23.5088 30.2307 22.9882 31.2233 22.448C32.2463 21.8911 33.3703 20.7081 33.9351 19.5936L34.364 18.7469V13.1158V7.48464L33.9075 6.61073C33.5345 5.89669 33.2697 5.63637 32.4613 5.18879C31.7876 4.81574 31.5525 4.60989 31.7245 4.54398C31.8635 4.49069 34.4006 3.74427 37.3625 2.88546C43.3217 1.15755 44.2655 1.01295 45.4929 1.639ZM48.8384 2.5765C49.3991 3.16819 49.6051 3.71223 49.7949 5.1008C49.8799 5.72336 49.965 22.6826 49.9909 44.1367L50.0366 82.0717L49.6609 82.9195C49.2266 83.8997 48.2639 84.9046 47.6039 85.0668C47.0456 85.2041 47.0403 85.135 47.549 84.3509C47.77 84.0104 48.1045 83.2248 48.2926 82.6051L48.6346 81.4781L48.5293 42.5118C48.4282 5.14081 48.4114 3.51599 48.1178 2.82603C47.9493 2.43041 47.8115 2.03562 47.8115 1.94862C47.8115 1.71603 48.315 2.02383 48.8384 2.5765ZM32.0073 6.36569C33.0716 7.26135 33.1114 7.50191 33.108 13.0084C33.1058 16.4333 33.0415 18.2044 32.9021 18.679C32.6537 19.5249 31.3973 20.9578 30.5048 21.413C29.8344 21.755 27.4737 22.2665 25.6227 22.4705C24.3138 22.615 23.9841 22.4354 23.4612 21.2933L23.049 20.3927L23.1034 15.4553L23.1579 10.5181L23.6068 9.5602C24.2351 8.21927 25.5012 7.02477 26.6475 6.69158C27.8884 6.33099 29.8115 5.99215 30.7404 5.97056C31.3415 5.95662 31.6269 6.04561 32.0073 6.36569ZM60.6014 31.0296C60.6079 32.2478 60.6121 32.2591 60.8682 31.786C61.1422 31.2801 61.0867 30.2847 60.7668 29.9647C60.6481 29.846 60.5968 30.1761 60.6014 31.0296ZM7.83331e-05 44.8313C0.00406275 46.681 0.881133 53.0842 1.66723 57.003C4.97695 73.5043 12.1456 85.4294 22.957 92.4189C34.1217 99.6365 48.8692 101.691 67.3768 98.6057C69.4092 98.2668 71.1714 98.0879 73.1291 98.0211C81.5022 97.7356 90.8746 96.2175 98.8618 93.8531C106.821 91.497 112.482 88.839 118.02 84.8581L118.418 84.5722L118.299 85.3651C118.154 86.3267 117.589 88.2211 116.878 90.1235C116.401 91.401 115.55 95.1777 115.547 96.0284C115.544 97.2775 116.953 99.5865 117.718 99.5865C118.603 99.5865 120.793 96.8153 122.31 93.7759C123.342 91.7103 123.658 90.7351 125.35 84.3959C125.642 83.3002 126.062 81.7687 126.284 80.9925C126.505 80.2164 126.806 79.0023 126.953 78.2946C127.316 76.5454 127.155 76.0588 125.716 74.5725C124.131 72.9342 122.992 72.0922 121.954 71.7904C120.371 71.3302 120.361 71.3325 115.713 73.277C114.48 73.7927 113.098 74.3128 112.641 74.433C112.185 74.5531 111.101 74.8379 110.234 75.0661C106.339 76.0904 102.272 76.5428 96.7036 76.5707L92.2211 76.5931L92.1715 77.0191C92.1313 77.3649 92.3845 77.6969 93.5207 78.7878C95.5622 80.7477 95.9459 80.9628 97.9708 81.2837C100.474 81.6804 108.479 81.6651 111.533 81.2578C112.75 81.0956 113.778 80.9944 113.816 81.0329C113.909 81.1259 106.327 84.827 103.178 86.2257C92.7426 90.8611 82.0446 94.4679 72.382 96.6082L69.3107 97.2885L64.8283 97.113C53.2384 96.6593 44.2384 94.9367 35.5262 91.5046C20.6156 85.6309 10.2688 75.6934 4.90241 62.0929C2.96748 57.189 1.51847 50.9973 1.03038 45.5478C0.914835 44.2562 0.899063 44.2182 0.454966 44.1672C0.0191703 44.1169 -0.00158184 44.1471 7.83331e-05 44.8313Z" fill="#0696B0"/>
<path fill-rule="evenodd" clip-rule="evenodd" d="M42.2499 0.0973614C41.6205 0.25458 29.1293 3.93868 26.6442 4.7002C24.1669 5.45923 24.1493 5.46819 23.2573 6.40669C22.7642 6.92549 22.1666 7.76405 21.9292 8.27008L21.4977 9.18998V43.3896C21.4977 75.9393 21.5121 77.6307 21.7975 78.4488C22.232 79.694 22.9475 80.5905 23.8868 81.0664C26.0188 82.1467 34.0669 84.1661 41.0974 85.385C47.4568 86.4874 48.011 86.5141 48.9877 85.7655C49.887 85.0762 50.7116 83.8744 51.074 82.7249L51.3584 81.8226H56.066H60.7736L61.4729 81.1705L62.172 80.5184L62.2153 58.155L62.2585 35.7918L61.6342 35.8949C61.2908 35.9517 60.9165 35.999 60.8023 36C60.6373 36.0015 60.5948 40.4567 60.5948 57.7184C60.5948 76.2023 60.5598 79.483 60.3594 79.7572C60.1384 80.0595 59.8577 80.0824 55.8143 80.1288L51.5047 80.1779L51.3943 54.8941C51.3335 40.9878 51.2683 24.3992 51.2494 18.0304L51.2148 6.45052L55.5411 6.45069C59.0147 6.45069 59.9307 6.49717 60.1896 6.68627C60.501 6.91404 60.5133 7.23678 60.5573 16.3772L60.6028 25.8326L61.2214 25.9348C61.5615 25.9911 61.9334 26.0379 62.0475 26.0389C62.2112 26.0404 62.255 23.9541 62.255 16.1562V6.27189L61.603 5.57262L60.9511 4.87352L56.0414 4.82488L51.1318 4.7764L51.1301 4.32683C51.1278 3.66292 50.4232 2.26671 49.7517 1.59517C49.1001 0.943719 47.759 0.428566 45.9853 0.148826C44.8864 -0.0246619 42.8509 -0.0525524 42.2499 0.0973614ZM45.4929 1.639C45.9907 1.89301 46.2643 2.20396 46.6249 2.92564L47.1004 3.87742L47.2412 41.7294C47.3186 62.548 47.3805 79.9923 47.3785 80.4945C47.3743 81.5764 46.8588 82.9957 46.171 83.8183L45.6883 84.3959L43.8861 84.3851C41.3135 84.3698 36.5123 83.4481 30.1113 81.741C24.2104 80.1671 23.985 80.0612 23.2623 78.5201L22.8258 77.5892L22.7818 50.138L22.738 22.6869L23.2513 23.1187C23.9431 23.7009 24.364 23.7818 26.0429 23.6557C27.9974 23.5088 30.2307 22.9882 31.2233 22.448C32.2463 21.8911 33.3703 20.7081 33.9351 19.5936L34.364 18.7469V13.1158V7.48464L33.9075 6.61073C33.5345 5.89669 33.2697 5.63637 32.4613 5.18879C31.7876 4.81574 31.5525 4.60989 31.7245 4.54398C31.8635 4.49069 34.4006 3.74427 37.3625 2.88546C43.3217 1.15755 44.2655 1.01295 45.4929 1.639ZM48.8384 2.5765C49.3991 3.16819 49.6051 3.71223 49.7949 5.1008C49.8799 5.72336 49.965 22.6826 49.9909 44.1367L50.0366 82.0717L49.6609 82.9195C49.2266 83.8997 48.2639 84.9046 47.6039 85.0668C47.0456 85.2041 47.0403 85.135 47.549 84.3509C47.77 84.0104 48.1045 83.2248 48.2926 82.6051L48.6346 81.4781L48.5293 42.5118C48.4282 5.14081 48.4114 3.51599 48.1178 2.82603C47.9493 2.43041 47.8115 2.03562 47.8115 1.94862C47.8115 1.71603 48.315 2.02383 48.8384 2.5765ZM32.0073 6.36569C33.0716 7.26135 33.1114 7.50191 33.108 13.0084C33.1058 16.4333 33.0415 18.2044 32.9021 18.679C32.6537 19.5249 31.3973 20.9578 30.5048 21.413C29.8344 21.755 27.4737 22.2665 25.6227 22.4705C24.3138 22.615 23.9841 22.4354 23.4612 21.2933L23.049 20.3927L23.1034 15.4553L23.1579 10.5181L23.6068 9.5602C24.2351 8.21927 25.5012 7.02477 26.6475 6.69158C27.8884 6.33099 29.8115 5.99215 30.7404 5.97056C31.3415 5.95662 31.6269 6.04561 32.0073 6.36569ZM60.5998 30.93C60.5963 31.7433 60.6468 32.0318 60.771 31.9076C61.0037 31.6749 61.0132 30.4787 60.7852 30.0864C60.6428 29.8414 60.6038 30.0185 60.5998 30.93ZM7.83331e-05 44.8313C0.00406275 46.681 0.881133 53.0842 1.66723 57.003C4.97695 73.5043 12.1456 85.4294 22.957 92.4189C34.1217 99.6365 48.8692 101.691 67.3768 98.6057C69.4092 98.2668 71.1714 98.0879 73.1291 98.0211C81.5022 97.7356 90.8746 96.2175 98.8618 93.8531C106.821 91.497 112.482 88.839 118.02 84.8581L118.418 84.5722L118.299 85.3651C118.154 86.3267 117.589 88.2211 116.878 90.1235C116.401 91.401 115.55 95.1777 115.547 96.0284C115.544 97.2775 116.953 99.5865 117.718 99.5865C118.603 99.5865 120.793 96.8153 122.31 93.7759C123.342 91.7103 123.658 90.7351 125.35 84.3959C125.642 83.3002 126.062 81.7687 126.284 80.9925C126.505 80.2164 126.806 79.0023 126.953 78.2946C127.316 76.5454 127.155 76.0588 125.716 74.5725C124.131 72.9342 122.992 72.0922 121.954 71.7904C120.371 71.3302 120.361 71.3325 115.713 73.277C114.48 73.7927 113.098 74.3128 112.641 74.433C112.185 74.5531 111.101 74.8379 110.234 75.0661C106.339 76.0904 102.272 76.5428 96.7036 76.5707L92.2211 76.5931L92.1715 77.0191C92.1313 77.3649 92.3845 77.6969 93.5207 78.7878C95.5622 80.7477 95.9459 80.9628 97.9708 81.2837C100.474 81.6804 108.479 81.6651 111.533 81.2578C112.75 81.0956 113.778 80.9944 113.816 81.0329C113.909 81.1259 106.327 84.827 103.178 86.2257C92.7426 90.8611 82.0446 94.4679 72.382 96.6082L69.3107 97.2885L64.8283 97.113C53.2384 96.6593 44.2384 94.9367 35.5262 91.5046C20.6156 85.6309 10.2688 75.6934 4.90241 62.0929C2.96748 57.189 1.51847 50.9973 1.03038 45.5478C0.914835 44.2562 0.899063 44.2182 0.454966 44.1672C0.0191703 44.1169 -0.00158184 44.1471 7.83331e-05 44.8313Z" fill="#0388A6"/>
<path fill-rule="evenodd" clip-rule="evenodd" d="M49.4716 1.36689C49.4716 1.40126 49.6025 1.53208 49.7622 1.65742C50.0255 1.86378 50.0313 1.85797 49.8249 1.59467C49.6079 1.31808 49.4716 1.23026 49.4716 1.36689ZM7.83331e-05 44.8313C0.00406275 46.681 0.881133 53.0842 1.66723 57.003C4.97695 73.5043 12.1456 85.4294 22.957 92.4189C34.1217 99.6365 48.8692 101.691 67.3768 98.6057C69.4092 98.2668 71.1714 98.0879 73.1291 98.0211C81.5022 97.7356 90.8746 96.2175 98.8618 93.8531C106.821 91.497 112.482 88.839 118.02 84.8581L118.418 84.5722L118.299 85.3651C118.154 86.3267 117.589 88.2211 116.878 90.1235C116.401 91.401 115.55 95.1777 115.547 96.0284C115.544 97.2775 116.953 99.5865 117.718 99.5865C118.603 99.5865 120.793 96.8153 122.31 93.7759C123.342 91.7103 123.658 90.7351 125.35 84.3959C125.642 83.3002 126.062 81.7687 126.284 80.9925C126.505 80.2164 126.806 79.0023 126.953 78.2946C127.316 76.5454 127.155 76.0588 125.716 74.5725C124.131 72.9342 122.992 72.0922 121.954 71.7904C120.371 71.3301 120.361 71.3325 115.713 73.277C114.48 73.7927 113.098 74.3128 112.641 74.433C112.185 74.5531 111.101 74.8379 110.234 75.066C106.339 76.0904 102.272 76.5428 96.7036 76.5707L92.2211 76.5931L92.1715 77.0191C92.1313 77.3649 92.3845 77.6969 93.5207 78.7878C95.5622 80.7477 95.9459 80.9628 97.9708 81.2837C100.474 81.6804 108.479 81.6651 111.533 81.2578C112.75 81.0956 113.778 80.9944 113.816 81.0329C113.909 81.1258 106.327 84.827 103.178 86.2257C92.7426 90.8611 82.0446 94.4678 72.382 96.6081L69.3107 97.2885L64.8283 97.113C53.2384 96.6593 44.2384 94.9367 35.5262 91.5046C20.6156 85.6309 10.2688 75.6934 4.90241 62.0929C2.96748 57.1889 1.51847 50.9973 1.03038 45.5478C0.914835 44.2562 0.899063 44.2182 0.454966 44.1672C0.0191703 44.1169 -0.00158184 44.1471 7.83331e-05 44.8313Z" fill="#00809F"/>
<path fill-rule="evenodd" clip-rule="evenodd" d="M7.83331e-05 44.8312C0.00406275 46.681 0.881133 53.0841 1.66723 57.003C4.97695 73.5043 12.1456 85.4293 22.957 92.4188C34.1217 99.6364 48.8692 101.691 67.3768 98.6056C69.4092 98.2668 71.1714 98.0878 73.1291 98.0211C81.5022 97.7355 90.8746 96.2174 98.8618 93.853C106.821 91.4969 112.482 88.839 118.02 84.858L118.418 84.5721L118.299 85.365C118.154 86.3266 117.589 88.221 116.878 90.1234C116.401 91.4009 115.55 95.1777 115.547 96.0284C115.544 97.2775 116.953 99.5864 117.718 99.5864C118.603 99.5864 120.793 96.8153 122.31 93.7758C123.342 91.7102 123.658 90.735 125.35 84.3958C125.642 83.3001 126.062 81.7686 126.284 80.9925C126.505 80.2163 126.806 79.0023 126.953 78.2945C127.316 76.5454 127.155 76.0588 125.716 74.5724C124.131 72.9342 122.992 72.0921 121.954 71.7903C120.371 71.3301 120.361 71.3324 115.713 73.277C114.48 73.7926 113.098 74.3128 112.641 74.433C112.185 74.553 111.101 74.8379 110.234 75.066C106.339 76.0903 102.272 76.5427 96.7036 76.5706L92.2211 76.593L92.1715 77.019C92.1313 77.3648 92.3845 77.6969 93.5207 78.7878C95.5622 80.7476 95.9459 80.9628 97.9708 81.2837C100.474 81.6803 108.479 81.665 111.533 81.2578C112.75 81.0956 113.778 80.9943 113.816 81.0328C113.909 81.1258 106.327 84.827 103.178 86.2257C92.7426 90.861 82.0446 94.4678 72.382 96.6081L69.3107 97.2884L64.8283 97.1129C53.2384 96.6592 44.2384 94.9366 35.5262 91.5045C20.6156 85.6308 10.2688 75.6934 4.90241 62.0929C2.96748 57.1889 1.51847 50.9973 1.03038 45.5477C0.914835 44.2561 0.899063 44.2181 0.454966 44.1671C0.0191703 44.1168 -0.00158184 44.1471 7.83331e-05 44.8312Z" fill="#EFDFCF"/>
<path fill-rule="evenodd" clip-rule="evenodd" d="M7.83331e-05 44.8312C0.00406275 46.681 0.881133 53.0841 1.66723 57.003C6.39955 80.5965 18.9468 94.6863 38.8465 98.7527C47.4622 100.513 56.8413 100.412 68.3146 98.4351C69.3209 98.2618 71.4082 98.078 72.9631 98.0259C85.8344 97.5949 100.14 94.3541 110.007 89.6344C112.469 88.4563 115.608 86.622 117.122 85.4759C117.726 85.0189 118.262 84.6449 118.314 84.6449C118.604 84.6449 117.852 87.5176 116.878 90.1234C116.401 91.401 115.55 95.1777 115.547 96.0284C115.544 97.2775 116.953 99.5864 117.718 99.5864C118.592 99.5864 120.821 96.765 122.31 93.7758C123.375 91.637 123.683 90.7115 124.933 85.89C125.336 84.3377 125.958 82.0218 126.315 80.7435C127.094 77.9567 127.233 77.1845 127.08 76.4863C127.002 76.1346 126.467 75.444 125.481 74.4247C123.752 72.6375 123.066 72.127 121.934 71.7837C120.417 71.3233 120.337 71.3424 115.713 73.277C114.48 73.7926 113.098 74.3128 112.641 74.433C112.185 74.553 111.101 74.8379 110.234 75.066C106.339 76.0903 102.272 76.5427 96.7036 76.5706L92.2211 76.593L92.1715 77.019C92.1313 77.3648 92.3845 77.6969 93.5207 78.7878C95.5949 80.779 95.9487 80.9739 98.0611 81.2872C100.706 81.6796 108.358 81.664 111.449 81.2599C112.711 81.0951 113.776 80.9923 113.815 81.0315C113.909 81.1255 106.349 84.817 103.178 86.2257C92.7426 90.8611 82.0446 94.4678 72.382 96.6081L69.3107 97.2884L64.8283 97.1129C51.7232 96.6 41.6265 94.4085 31.8738 89.9604C25.8224 87.2004 20.2602 83.3584 15.7701 78.8366C8.53935 71.5549 3.93818 62.5019 1.84686 51.4414C1.5467 49.8541 1.06126 46.2409 0.954513 44.8007C0.917657 44.3029 0.845937 44.2121 0.454966 44.1671C0.0191703 44.1168 -0.00158184 44.1471 7.83331e-05 44.8312Z" fill="#F2D5C4"/>
</svg>
